<?xml version="1.0" encoding="UTF-8"?><svg id="Ebene_3" xmlns="http://www.w3.org/2000/svg" xmlns:xlink="http://www.w3.org/1999/xlink" viewBox="0 0 300 300"><defs><style>.cls-1,.cls-2,.cls-3,.cls-4,.cls-5,.cls-6,.cls-7,.cls-8,.cls-9,.cls-10,.cls-11,.cls-12,.cls-13,.cls-14,.cls-15,.cls-16,.cls-17,.cls-18,.cls-19,.cls-20,.cls-21,.cls-22,.cls-23,.cls-24,.cls-25,.cls-26,.cls-27,.cls-28,.cls-29,.cls-30,.cls-31,.cls-32,.cls-33,.cls-34,.cls-35,.cls-36,.cls-37,.cls-38,.cls-39,.cls-40,.cls-41,.cls-42,.cls-43,.cls-44,.cls-45,.cls-46,.cls-47,.cls-48,.cls-49,.cls-50,.cls-51,.cls-52,.cls-53,.cls-54,.cls-55,.cls-56,.cls-57,.cls-58,.cls-59{stroke-linecap:round;}.cls-1,.cls-2,.cls-3,.cls-4,.cls-5,.cls-6,.cls-7,.cls-8,.cls-9,.cls-10,.cls-11,.cls-12,.cls-13,.cls-14,.cls-15,.cls-16,.cls-17,.cls-18,.cls-19,.cls-20,.cls-21,.cls-22,.cls-23,.cls-24,.cls-25,.cls-26,.cls-27,.cls-28,.cls-29,.cls-30,.cls-31,.cls-32,.cls-33,.cls-34,.cls-35,.cls-36,.cls-37,.cls-38,.cls-39,.cls-40,.cls-41,.cls-42,.cls-43,.cls-46,.cls-47,.cls-48,.cls-49,.cls-50,.cls-51,.cls-52,.cls-53,.cls-54,.cls-55,.cls-56,.cls-57,.cls-58,.cls-59{stroke-linejoin:round;}.cls-1,.cls-2,.cls-3,.cls-60,.cls-13,.cls-14,.cls-15,.cls-16,.cls-17,.cls-18,.cls-19,.cls-21,.cls-22,.cls-23,.cls-24,.cls-25,.cls-26,.cls-29,.cls-30,.cls-31,.cls-32,.cls-35,.cls-44,.cls-45{fill:none;}.cls-1,.cls-2,.cls-3,.cls-13,.cls-14,.cls-15,.cls-16,.cls-17,.cls-37,.cls-38,.cls-39,.cls-40,.cls-42,.cls-44,.cls-45,.cls-46,.cls-47,.cls-48,.cls-49,.cls-50,.cls-51,.cls-52,.cls-53,.cls-54,.cls-55,.cls-56{stroke-width:7.72px;}.cls-1,.cls-21,.cls-54{stroke:#ffc518;}.cls-2,.cls-19,.cls-52{stroke:#8f0037;}.cls-3,.cls-10{stroke:#00e3c5;}.cls-61{clip-path:url(#clippath);}.cls-4,.cls-5,.cls-6,.cls-7,.cls-8,.cls-9,.cls-10,.cls-11,.cls-12,.cls-21,.cls-22,.cls-23,.cls-24,.cls-25,.cls-26,.cls-29,.cls-30,.cls-31,.cls-32,.cls-57,.cls-58,.cls-59{stroke-width:3.22px;}.cls-4,.cls-47{fill:#1d61f2;stroke:#1d61f2;}.cls-60,.cls-62,.cls-63,.cls-64,.cls-65,.cls-66,.cls-67,.cls-68,.cls-69,.cls-70,.cls-71,.cls-72{stroke-width:0px;}.cls-5,.cls-49{stroke:#1c008c;}.cls-5,.cls-49,.cls-65{fill:#1c008c;}.cls-6,.cls-48{fill:#4512ff;stroke:#4512ff;}.cls-7,.cls-20,.cls-23,.cls-55{stroke:#f50;}.cls-7,.cls-20,.cls-55{fill:#f50;}.cls-8,.cls-22,.cls-32,.cls-53{stroke:#f90;}.cls-8,.cls-53{fill:#f90;}.cls-9{fill:#00a879;stroke:#00a879;}.cls-10{fill:#00e3c5;}.cls-11,.cls-17,.cls-30,.cls-33,.cls-35,.cls-44,.cls-56{stroke:#d1001f;}.cls-11,.cls-33,.cls-56{fill:#d1001f;}.cls-12{fill:#e02200;stroke:#e02200;}.cls-13,.cls-27,.cls-31,.cls-36,.cls-42{stroke:#28005e;}.cls-14,.cls-43{stroke:#2815d1;}.cls-15,.cls-38,.cls-41,.cls-57{stroke:#388bff;}.cls-16,.cls-29,.cls-39,.cls-58{stroke:#391fcc;}.cls-18,.cls-19{stroke-width:10.29px;}.cls-18,.cls-51{stroke:#3112a8;}.cls-20{stroke-width:7.85px;}.cls-24{stroke:#ffe270;}.cls-25{stroke:#ed4300;}.cls-26{stroke:#1a51eb;}.cls-27,.cls-28,.cls-33,.cls-34{stroke-width:8.09px;}.cls-27,.cls-36,.cls-42{fill:#28005e;}.cls-28{fill:#700045;stroke:#700045;}.cls-32{stroke-dasharray:0 0 0 0 0 0 14.41 7.72 8.23 4.89 .79 4.51;}.cls-34{fill:#5e0024;stroke:#5e0024;}.cls-35{stroke-width:5.53px;}.cls-36,.cls-43{stroke-width:3.4px;}.cls-62{fill:url(#Unbenannter_Verlauf_50);}.cls-37{fill:#2f0075;stroke:#2f0075;}.cls-38,.cls-41,.cls-57{fill:#388bff;}.cls-39,.cls-58{fill:#391fcc;}.cls-40{fill:#70005a;stroke:#70005a;}.cls-41{stroke-width:1.55px;}.cls-43{fill:#2815d1;}.cls-44,.cls-45{stroke-miterlimit:10;}.cls-45,.cls-59{stroke:#4efcff;}.cls-46{fill:#1f0075;stroke:#1f0075;}.cls-50{stroke:#160038;}.cls-50,.cls-66{fill:#160038;}.cls-51{fill:#3112a8;}.cls-52{fill:#8f0037;}.cls-63{fill:#26e07d;}.cls-64{fill:#9c005d;}.cls-67{fill:#ff7607;}.cls-68{fill:#fff;}.cls-69,.cls-54{fill:#ffc518;}.cls-70{fill:#00c97e;}.cls-71{fill:#00e892;}.cls-72{fill:#009676;}.cls-59{fill:#4efcff;}</style><clipPath id="clippath"><circle class="cls-60" cx="150" cy="150" r="130"/></clipPath><linearGradient id="Unbenannter_Verlauf_50" x1="123.2" y1="153.78" x2="219.68" y2="153.78" gradientUnits="userSpaceOnUse"><stop offset="0" stop-color="#fcff30"/><stop offset=".1" stop-color="#f7fe32"/><stop offset=".2" stop-color="#ebfd38"/><stop offset=".31" stop-color="#d6fb43"/><stop offset=".42" stop-color="#b8f852"/><stop offset=".53" stop-color="#92f566"/><stop offset=".64" stop-color="#64f17e"/><stop offset=".74" stop-color="#2eec9a"/><stop offset=".83" stop-color="#00e8b2"/></linearGradient></defs><g class="cls-61"><rect class="cls-71" x="43.02" y="60.2" width="240.94" height="135.53"/><rect class="cls-62" x="18.79" y="9.08" width="289.4" height="289.4"/><path class="cls-70" d="m190.07,282.35c-3.1-9.8-4.25-20.35-4.32-29.69-.02-3.22,3.78-4.94,6.17-2.8,4.56,4.08,11.48,8.24,20.72,12.35,8.49,3.77,12.19,13.82,8.21,22.23h0c-6.45,13.62-26.25,12.28-30.79-2.09Z"/><path class="cls-63" d="m19.17,236.89c17.18-11.6,36.92-19.86,54.95-25.33,6.21-1.88,11.72,4.48,8.94,10.34-5.29,11.15-9.38,26.92-12.03,47.14-2.44,18.58-19.76,31.48-38.29,28.59h0c-30.02-4.68-38.75-43.74-13.57-60.74Z"/><path class="cls-63" d="m-9.09,159.98c21.65,5.56,42.43,15.57,59.74,26.19,5.96,3.66,4.77,12.66-1.94,14.61-12.77,3.71-28.42,11.7-46.62,24.02-16.73,11.33-39.53,6.58-50.45-10.42h0c-17.71-27.56,7.55-62.55,39.28-54.4Z"/><path class="cls-63" d="m19.69,111.43c15.4,11.14,29.36,16.08,40.81,17.12,6.01.54,7.69,8.55,2.35,11.37-16.8,8.88-39.34,15.72-60.26,12.18-17.61-2.98-24.94-24.28-12.95-37.52h0c7.75-8.56,20.7-9.91,30.05-3.15Z"/><path class="cls-63" d="m17.33,93.02c17.69,5.1,36.63,6.67,53.35,6.35,5.76-.11,8.67-7,4.72-11.18-7.52-7.97-15.29-20.17-23.07-36.53-7.15-15.03-25.32-21.18-40.17-13.67h0c-24.08,12.17-20.76,47.56,5.17,55.03Z"/><path class="cls-70" d="m97.9-15.44c11.43,19.21,19.1,40.96,23.88,60.7,1.64,6.8-5.55,12.34-11.68,8.98-11.67-6.38-28.4-11.75-49.99-15.85-19.85-3.77-32.66-23.21-28.42-42.97h0c6.88-32.02,49.47-39.02,66.21-10.87Z"/><path class="cls-70" d="m73.81,13.05c9.02,16.45,14.81,34.93,18.23,51.62,1.18,5.75-5.02,10.19-10.06,7.19-9.6-5.7-23.47-10.69-41.47-14.77-16.54-3.75-26.71-20.43-22.57-36.88h0c6.72-26.66,42.65-31.26,55.86-7.16Z"/><path class="cls-70" d="m253.1,28.9c-8.64,12.85-14.78,27.6-18.84,41.07-1.4,4.64,3.36,8.75,7.73,6.66,8.32-3.97,20.09-7.04,35.18-9.05,13.87-1.85,23.48-14.8,21.3-28.63h0c-3.53-22.41-32.72-28.88-45.38-10.05Z"/><path class="cls-70" d="m302.16,17.34c-12.63,18.79-21.61,40.36-27.55,60.05-2.04,6.78,4.92,12.79,11.31,9.74,12.16-5.8,29.38-10.29,51.45-13.23,20.29-2.7,34.34-21.65,31.15-41.87h0c-5.17-32.77-47.85-42.23-66.36-14.7Z"/><path class="cls-63" d="m-32.35,107.71c9.8-18.27,23.41-34.78,36.81-48.02,4.61-4.56,12.46-1.5,12.73,4.98.51,12.33,4.25,28.19,11.33,47.31,6.5,17.58-2.82,37.06-20.55,43.14h0c-28.74,9.85-54.67-20.64-40.32-47.42Z"/><path class="cls-72" d="m24.86,15.65c18.45,10.97,34.91,25.81,47.99,40.28,4.5,4.98.98,12.96-5.74,12.94-12.78-.03-29.35,3.11-49.46,9.55-18.48,5.92-38.21-4.61-43.69-23.23h0C-34.92,25.01-2.18-.43,24.86,15.65Z"/><path class="cls-72" d="m30.33,62.63c10.82,3.47,21.08,9.17,29.54,15.08,2.92,2.03,2.04,6.57-1.42,7.36-6.6,1.5-14.78,5.09-24.39,10.8-8.83,5.25-20.26,2.16-25.3-6.8h0c-8.16-14.52,5.7-31.53,21.57-26.44Z"/><path class="cls-72" d="m187.64-1.08c-4.96,19.48-6.03,40.19-5.12,58.42.31,6.28,7.93,9.23,12.36,4.77,8.44-8.47,21.49-17.37,39.07-26.41,16.16-8.31,22.25-28.34,13.56-44.29h0c-14.09-25.86-52.6-21.04-59.86,7.5Z"/><path class="cls-72" d="m283.54,16.44c-12.89,15.42-22.82,33.63-29.88,50.46-2.43,5.8,3.16,11.75,9.08,9.65,11.27-3.99,26.89-6.37,46.65-6.92,18.16-.51,32.32-15.93,31.37-34.07h0c-1.53-29.41-38.33-41.71-57.22-19.12Z"/><path class="cls-70" d="m191.03,35.21c-3.19,11.3-8.7,22.08-14.49,31.04-1.99,3.08-6.7,2.35-7.64-1.2-1.79-6.75-5.79-15.06-12.03-24.77-5.74-8.92-2.97-20.83,6.09-26.36h0c14.69-8.95,32.74,4.74,28.07,21.29Z"/><path class="cls-70" d="m106.31,298.58c6.21-18.71,8.71-38.91,9.09-56.82.13-6.17-7.11-9.58-11.76-5.53-8.85,7.71-22.25,15.49-40.08,23.11-16.39,7-23.76,26.18-16.36,42.4h0c11.99,26.29,50.01,24.26,59.11-3.16Z"/><path class="cls-70" d="m11.08,189.64c18.15-7.71,34.95-19.19,48.64-30.74,4.71-3.98,2.49-11.67-3.63-12.48-11.63-1.55-26.33-6.45-43.84-14.79-16.09-7.67-35.35-.52-42.63,15.76h0c-11.8,26.38,14.86,53.56,41.45,42.26Z"/><path class="cls-70" d="m8.17,130.29c15.91.51,32.1-2.2,46.05-6.01,4.8-1.31,5.78-7.7,1.58-10.37-7.99-5.08-17.1-13.65-27.09-25.7-9.18-11.07-25.71-12.37-36.56-2.92h0c-17.59,15.31-7.29,44.26,16.02,45.01Z"/><path class="cls-70" d="m-5.76,131.72c9.07-7.37,16.76-16.68,22.66-25.51,2.03-3.04-.5-7.06-4.12-6.52-6.88,1.03-16.06.65-27.4-1.22-10.43-1.72-20.22,5.51-21.69,15.98h0c-2.39,16.97,17.26,28.07,30.56,17.26Z"/><path class="cls-70" d="m11.92,230.08c15.09-4.38,31.25-5.76,45.53-5.52,4.91.08,7.42,5.95,4.05,9.54-6.4,6.81-13.01,17.25-19.62,31.22-6.08,12.84-21.57,18.12-34.26,11.74h0c-20.57-10.34-17.8-40.56,4.31-46.98Z"/><path class="cls-70" d="m-2.43,239.19c18.7-6.25,36.37-16.36,50.93-26.79,5.01-3.59,3.41-11.44-2.62-12.73-11.47-2.46-25.74-8.52-42.53-18.22-15.43-8.92-35.2-3.32-43.74,12.32h0c-13.86,25.36,10.56,54.57,37.97,45.42Z"/><path class="cls-63" d="m300.09,166.44c-15.24-13.15-28-29.54-37.71-45.03-3.34-5.33,1.22-12.12,7.41-11.01,11.79,2.12,27.61,1.93,47.22-.73,18.03-2.44,34.52,10.51,36.53,28.59h0c3.26,29.32-31.12,47.44-53.46,28.17Z"/><path class="cls-63" d="m316.2,182.35c-17.06-10.68-32.17-24.94-44.12-38.78-4.12-4.76-.64-12.17,5.65-12.01,11.97.3,27.58-2.28,46.57-7.89,17.45-5.16,35.72,5.14,40.45,22.71h0c7.68,28.48-23.55,51.62-48.56,35.97Z"/><path class="cls-63" d="m304.55,124.6c-15.19-8.32-28.87-19.82-39.82-31.11-3.77-3.89-1.15-10.42,4.26-10.59,10.3-.33,23.57-3.33,39.6-9.09,14.73-5.3,30.93,2.64,35.87,17.49h0c8.01,24.08-17.66,45.5-39.91,33.31Z"/><path class="cls-63" d="m249.6,251.61c-18.41-9.32-30.12-20.33-36.81-30.86-3.51-5.53-12.07-3.17-12.14,3.39-.21,20.62,4.4,45.78,18.22,64.2,11.63,15.51,35.83,11.99,42.64-6.16h0c4.4-11.73-.73-24.9-11.91-30.56Z"/><path class="cls-63" d="m307.86,185.33c-21.78,0-38.06-4.77-49.38-11.5-5.95-3.53-12.87,2.78-9.81,8.98,9.64,19.51,25.98,41,47.77,51.75,18.35,9.05,39.45-5.81,37.21-26.14h0c-1.45-13.14-12.56-23.09-25.79-23.09Z"/><path class="cls-63" d="m309.8,220.1c-28.24,4.97-49.14.88-62.76-6.66-4.38-2.42-9.11,2.62-6.43,6.85,13.36,21.16,37.32,45.99,66.26,54.44,21.26,6.21,40.98-13.59,34.77-34.85h0c-4.02-13.74-17.73-22.26-31.83-19.78Z"/><path class="cls-63" d="m316.84,252.84c-28.24,4.97-49.14.88-62.76-6.66-4.38-2.42-9.11,2.62-6.43,6.85,13.36,21.16,37.32,45.99,66.26,54.44,21.26,6.21,40.98-13.59,34.77-34.85h0c-4.02-13.74-17.73-22.26-31.83-19.78Z"/><path class="cls-70" d="m246.01,270.47c-.13-11.98,2.17-24.13,5.27-34.56,1.07-3.59,5.89-4.23,7.83-1.02,3.69,6.1,10,13.09,18.91,20.81,8.19,7.09,8.89,19.55,1.61,27.57h0c-11.81,12.99-33.43,4.77-33.62-12.79Z"/><path class="cls-70" d="m303.25,232.55c-10.96-7.66-20.51-17.63-27.97-27.22-2.57-3.3-.01-8.09,4.16-7.78,7.94.6,18.38-.59,31.17-3.67,11.75-2.83,23.53,4.61,26.08,16.43h0c4.13,19.16-17.37,33.46-33.43,22.23Z"/><path class="cls-70" d="m310.04,266.77c-10.96-7.66-20.51-17.63-27.97-27.22-2.57-3.3-.01-8.09,4.16-7.78,7.94.6,18.38-.59,31.17-3.67,11.75-2.83,23.53,4.61,26.08,16.43h0c4.13,19.16-17.37,33.46-33.43,22.23Z"/><path class="cls-70" d="m332.3,150.25c-18.05,1.16-31.8-1.94-41.54-6.91-5.12-2.61-10.52,2.99-7.66,7.96,9.02,15.66,23.71,32.6,42.35,40.36,15.69,6.53,32.4-6.91,29.45-23.65h0c-1.9-10.82-11.64-18.47-22.6-17.77Z"/><path class="cls-70" d="m334.74,169.19c-18.05,1.16-31.8-1.94-41.54-6.91-5.12-2.61-10.52,2.99-7.66,7.96,9.02,15.66,23.71,32.6,42.35,40.36,15.69,6.53,32.4-6.91,29.45-23.65h0c-1.9-10.82-11.64-18.47-22.6-17.77Z"/><path class="cls-72" d="m328.4,47.39c-13.18,12.39-25.75,18.75-36.43,21.12-5.61,1.24-6.21,9-.83,11.02,16.93,6.33,39.04,10.04,58.35,4.16,16.26-4.95,20.58-25.95,7.66-36.99h0c-8.35-7.13-20.74-6.83-28.74.69Z"/><path class="cls-72" d="m59.12,302.15c11.57-15.97,20.05-34.47,25.82-51.43,1.99-5.84-3.89-11.28-9.55-8.82-10.76,4.68-25.89,8.06-45.19,9.94-17.74,1.73-30.55,17.79-28.39,35.49h0c3.49,28.68,40.35,38.22,57.31,14.82Z"/><path class="cls-72" d="m112.19,292.26c5.14-12.55,7.81-26.29,8.91-38.55.38-4.22-4.43-6.91-7.81-4.35-6.43,4.87-15.99,9.58-28.58,13.97-11.58,4.03-17.53,16.84-13.22,28.32h0c6.99,18.6,33.17,19,40.7.61Z"/><path class="cls-72" d="m72.34,323.84c8.12-11.2,14.06-24.17,18.11-36.07,1.39-4.1-2.73-7.91-6.7-6.19-7.55,3.28-18.15,5.65-31.69,6.97-12.44,1.21-21.42,12.48-19.91,24.89h0c2.45,20.12,28.3,26.81,40.19,10.4Z"/><path class="cls-72" d="m250.17,305.52c-9.3-17.27-15.22-36.64-18.67-54.13-1.19-6.02,5.33-10.61,10.58-7.44,10,6.03,24.46,11.37,43.25,15.77,17.27,4.05,27.78,21.58,23.31,38.75h0c-7.23,27.83-44.84,32.37-58.48,7.05Z"/><path class="cls-2" d="m180.7,124.73h0s-11.93-4.2-13.28-19.34"/><path class="cls-44" d="m167.44,105.41s-26.17-1.95-21.85,35.75"/><line class="cls-7" x1="141.93" y1="137.24" x2="148.32" y2="137.08"/><line class="cls-7" x1="142.4" y1="127.15" x2="148.75" y2="127.5"/><line class="cls-7" x1="144.87" y1="116.12" x2="151.04" y2="118.88"/><line class="cls-7" x1="152.04" y1="107.5" x2="155.89" y2="111.91"/><line class="cls-7" x1="163.15" y1="102.74" x2="163.92" y2="109"/><path class="cls-28" d="m255.2,99.64c5.34-.3,7.24-2.64,8.67-7.6-.9,5.49-.55,8.28,2.55,10.9l-11.22-3.3Z"/><path class="cls-52" d="m247.06,98.81c-8.03,1.13-9.91-15.43-12.37-23.13,2.03,6.19,3.33,17.89.04,24.18l12.33-1.05Z"/><path class="cls-34" d="m267.41,130.41l3.84,4.82c2.38,2.99,5.38,5.43,8.8,7.16l3.89,1.97c7.29,3.69,15.55-2.85,13.64-10.79h0c-1.58-6.57-4.59-12.72-8.8-18l-1.06-1.33c-4.47-5.61-12.64-6.53-18.24-2.06h0c-5.61,4.47-6.53,12.64-2.06,18.24Z"/><path class="cls-2" d="m277.82,144.3c6.85-2.36,11.91-7.56,14.31-13.83"/><path class="cls-55" d="m259.99,100.48l-8.4-1.46c-5.21-.91-10.56-.68-15.67.66l-5.83,1.53c-10.93,2.87-13.48,17.22-4.21,23.69h0c7.67,5.35,16.42,8.95,25.63,10.55l2.32.4c9.77,1.7,19.07-4.84,20.77-14.61h0c1.7-9.77-4.84-19.07-14.61-20.77Z"/><path class="cls-52" d="m265.19,102.24c.94,2.76,1.23,5.79.69,8.87h0c-1.7,9.77-11,16.31-20.77,14.61l-2.32-.4c-7.9-1.37-15.45-4.22-22.28-8.37.66,3.04,2.41,5.9,5.37,7.96h0c7.67,5.35,16.42,8.95,25.63,10.55l2.32.4c9.77,1.7,19.07-4.84,20.77-14.61h0c1.38-7.91-2.65-15.5-9.41-19.02Z"/><path class="cls-56" d="m234,100.19l-3.9,1.03c-10.93,2.87-13.48,17.22-4.21,23.69h0c3.84,2.68,7.95,4.91,12.25,6.68.87-1.37,1.49-2.95,1.81-4.69.01-.06.02-.12.03-.19h0c1.68-9.67-.73-19.1-5.98-26.52Z"/><path class="cls-53" d="m247.11,100.63c-1.04-1.32-.87-3.26.45-4.31,4.57-3.65,3.2-11.99,2.41-18.89.61,5.67,1.21,15.25,5.09,20.5.93,1.26.73,3.03-.41,4.1h0c-1.99,1.86-5.15,1.63-6.83-.51l-.71-.9Z"/><path class="cls-17" d="m240.9,134.19c2.5-2.95,4.16-6.38,4.97-9.97,1.04-4.61,4.06-8.53,8.19-10.83h0"/><path class="cls-17" d="m253.68,139.5c5.76-4.39,8.93-10.92,9.24-17.63"/><path class="cls-56" d="m189.22,153.89l-7.99-.19c-1.12-.03-2.19.26-3.12.79-5.4,2.53-8.4,7.78-8.52,14.23-.12,4.93.79,10.77,2.61,14.29.41.78.86,1.45,1.35,1.97h0c.15-6.37.35-12.16,3.15-17.88l1.6-3.26,1.33-.48c.45-3.86,3.76-6.73,7.64-6.64l1.89.04c.8.02,1.46-.61,1.47-1.41s-.61-1.46-1.41-1.47Z"/><path class="cls-23" d="m181.35,167.48c1.03-.06,2.21.14,3.52.74l-.58-.32c-.38-.19-.73-.41-1.03-.65-1.55-1.22-1.64-2.94-.94-4.27l-2.2.19-3.18,7.08c.18-.32.4-.65.68-.96l-.27,1.3-1.53,6.09c.12-.37.33-.76.62-1.12l-.04,1.47-.36,5.29c.18-1.22,1.86-1.63,4.49-1.43l-.38-.06c-.13-.02-.26-.05-.39-.07-4.99-.69-4.39-6.89.41-6.56.25.02.5.08.77.15l1.32.44-1.75-.59s-.05-.02-.08-.02c-3.64-1.16-2.9-6.46.92-6.7Z"/><path class="cls-22" d="m180.26,161.29c-5.35,5.83-6.96,15.64-5.5,21.93"/><rect class="cls-56" x="183.47" y="103.55" width="21.06" height="21.06" rx="10.53" ry="10.53" transform="translate(416.04 150.76) rotate(158.92)"/><path class="cls-17" d="m199.02,102.33c-5.56-.48-8.85-3.38-11.07-9.15,2.22,5.77,1.36,10.09-2.07,14.22l13.14-5.06Z"/><rect class="cls-55" x="181.59" y="105.38" width="41.99" height="51.54" rx="21" ry="21" transform="translate(438.78 180.69) rotate(158.92)"/><path class="cls-55" d="m194.66,105.08c3.58-3.01,3.89-6.37,2.69-11.57,1.83,5.12,3.48,7.88,6.6,9.24,1.21.52,1.73,1.95,1.09,3.1l-.63,1.14c-2.01,3.64-6.95,4.33-9.88,1.39l-.04-.04c-.92-.92-.83-2.42.17-3.26Z"/><line class="cls-7" x1="179.16" y1="124.93" x2="176.36" y2="124.48"/><line class="cls-22" x1="178.17" y1="119.94" x2="175.86" y2="119.47"/><line class="cls-7" x1="180.42" y1="133.73" x2="177.78" y2="134.19"/><line class="cls-22" x1="184.57" y1="107.08" x2="183.7" y2="104.9"/><line class="cls-22" x1="180.68" y1="130.91" x2="178.34" y2="131.04"/><rect class="cls-56" x="192.7" y="117.72" width="32.27" height="32.27" rx="16.13" ry="16.13" transform="translate(451.84 183.66) rotate(158.92)"/><rect class="cls-55" x="206.31" y="90.45" width="21.06" height="21.06" rx="10.53" ry="10.53" transform="translate(445.48 171.25) rotate(172.11)"/><path class="cls-55" d="m222.89,91.09c-5.54-1.81-8.19-5.55-9.07-11.94.89,6.39-1.02,10.58-5.49,13.96l14.56-2.02Z"/><line class="cls-1" x1="223.71" y1="107.39" x2="225.77" y2="103.27"/><rect class="cls-53" x="190.37" y="101.44" width="41.99" height="51.54" rx="21" ry="21" transform="translate(446.06 203.21) rotate(166.9)"/><path class="cls-53" d="m203.79,93.71h16.08c7.94,0,14.39,6.45,14.39,14.39v4.29c0,7.94-6.45,14.39-14.39,14.39h-16.08v-33.08h0Z" transform="translate(-21.73 156.76) rotate(-37.65)"/><path class="cls-53" d="m220.7,93.52c3.89-.2,5.79-2.28,7.61-6.34-1.36,4.32-1.65,6.99-.26,9.47.54.96.17,2.16-.84,2.61l-.99.44c-3.17,1.41-6.8-.61-7.27-4.05v-.05c-.15-1.08.66-2.03,1.75-2.09Z"/><path class="cls-53" d="m203.47,99.15c1.87-3.42,1.1-6.13-1.4-9.81,2.96,3.43,5.08,5.07,7.92,5.19,1.1.04,1.93.99,1.78,2.08l-.15,1.08c-.46,3.44-4.09,5.47-7.26,4.07l-.04-.02c-.99-.44-1.38-1.63-.85-2.59Z"/><path class="cls-54" d="m195.61,122.11c-1.48-6.35.09-12.69,3.76-17.49-7.54,4.58-11.64,13.64-9.53,22.7l2.16,9.3c.09.37.18.74.29,1.1,1.22,4.21,7.54,2.53,6.55-1.74l-3.22-13.86Z"/><line class="cls-21" x1="209.09" y1="102.83" x2="208.6" y2="100.44"/><line class="cls-24" x1="195.46" y1="126.08" x2="193.25" y2="125.06"/><line class="cls-21" x1="202.49" y1="97.69" x2="201.1" y2="95.68"/><line class="cls-21" x1="223.88" y1="94.86" x2="225.22" y2="92.82"/><line class="cls-21" x1="213.06" y1="94.41" x2="213.37" y2="91.59"/><line class="cls-21" x1="230.87" y1="99.51" x2="232.92" y2="98.41"/><line class="cls-24" x1="195.23" y1="107.1" x2="193.68" y2="104.98"/><line class="cls-24" x1="193.83" y1="114.49" x2="192.27" y2="112.37"/><line class="cls-24" x1="187.23" y1="127.48" x2="185.35" y2="127.67"/><line class="cls-24" x1="186.84" y1="120.23" x2="185.05" y2="119.63"/><path class="cls-40" d="m186.35,156.87c-1.53-2.5-.97-5.73,1.13-6.52l8.01-3.02c2.75-1.04,6.01,1.81,6.41,5.6h0c0,.09.02.18.02.27.15,2.22-1.02,3.97-2.73,4.26l-9.05,1.55c-1.37.23-2.86-.61-3.8-2.14h0Z"/><path class="cls-66" d="m186.03,155.6c-.98-1.61-.62-3.68.73-4.19l5.15-1.94c1.77-.67,3.86,1.16,4.12,3.6h0c0,.06.01.11.01.17.1,1.43-.65,2.55-1.75,2.74l-5.81,1c-.88.15-1.84-.39-2.44-1.37h0Z"/><path class="cls-12" d="m186.4,151.76c-.22,2.63.54,5.08.54,5.08"/><path class="cls-12" d="m191.35,151.2c1.09,2.4,1.2,4.96,1.2,4.96"/><path class="cls-54" d="m194.53,146.67c2.61-.79,3.16-4.28.89-5.8-2.01-1.35-4.6-1.82-7.1-1.06-2.5.76-4.39,2.59-5.3,4.83-1.03,2.52,1.36,5.11,3.97,4.31l7.54-2.3Z"/><path class="cls-53" d="m195.62,146.34c1.7-.52,2.06-2.79.58-3.77-1.31-.88-2.99-1.18-4.62-.69-1.63.5-2.86,1.69-3.46,3.15-.67,1.64.89,3.33,2.59,2.81l4.91-1.5Z"/><path class="cls-55" d="m218.11,109.28c-3.87,7.47-6.88,15.73-8.64,23.3-.64,2.74,2.43,4.83,4.74,3.23.02-.02.05-.03.07-.05,3.98-2.78,9.35.59,8.56,5.38-.67,4.07-2.55,7.98-5.63,11.17,11.29-2.63,18.32-13.91,15.69-25.21l-2-8.59c.92-2.07,1.39-4.18,1.21-6.26,0-.11-.02-.22-.03-.33-.77-7.29-10.59-9.14-13.97-2.63Z"/><path class="cls-25" d="m229.46,140.31c1.76-3.1,2.78-6.54,3.01-10.06"/><path class="cls-25" d="m224.95,145.98c.44-.4.86-.82,1.26-1.25"/><path class="cls-37" d="m209.43,133.02c-.27,2.54,2.72,4.08,4.62,2.38,6.04-5.42,15.19-15.15,13.5-23.19-.02-.1-.04-.2-.07-.3-1.49-6.48-10.54-7.05-12.86-.82-2.66,7.15-4.45,14.91-5.2,21.93Z"/><path class="cls-50" d="m214.63,111.1c-.34.91-.67,1.84-.98,2.77,2.54-1.82,6.6-1.19,7.99,2.28.03.07.06.15.09.22,2,5.3-2.36,12.63-6.17,17.65,5.93-5.58,13.55-14.41,12-21.81-.02-.1-.04-.2-.07-.3-1.49-6.48-10.54-7.05-12.86-.82Z"/><rect class="cls-64" x="208.46" y="117.94" width="17.88" height="8.4" rx="4.2" ry="4.2" transform="translate(28 284.34) rotate(-69.9)"/><circle class="cls-69" cx="216.46" cy="116.78" r="4.01"/><circle class="cls-68" cx="212.84" cy="128.21" r="2.64"/><path class="cls-11" d="m200.37,172.27l-4.66-6.07-2.04-.89c.7,1.11.93,4.14-.14,5.49-.24.31-.53.61-.87.89l-.49.44c.52-.41,1.04-.73,1.54-.97,2.87-1.39,5.9,1.8,4.27,4.54-.3.51-.74.95-1.35,1.27l-.4.22c.61-.29,1.17-.45,1.69-.51,3.01-.37,4.41,3.72,1.76,5.19-.05.03-.11.06-.17.09l-.32.17c2.29-1.02,3.82.14,4.37,1.17l-2.02-4.63-.31-.8c.19.21.34.42.46.63l-2.66-5.69-.86-1.98c.91.33,1.66.87,2.18,1.44Z"/><path class="cls-56" d="m207.72,144.11l-5.06,3.16c-1.96,1.22-3.04,3.45-2.79,5.75h0c.79,4.86-2.41,9.45-7.19,10.41h0c6.08,3.83,10.35,9.97,11.82,17l.6,2.87c4.24-6.12,4.94-13.67,2.51-20.18h0s-2.73-8.79-2.73-8.79c-.77-2.49.23-5.19,2.44-6.57l1.94-1.21c.68-.42.88-1.31.46-1.99h0c-.42-.68-1.31-.88-1.99-.46Z"/><path class="cls-23" d="m202.65,147.28c-1.96,1.22-3.04,3.45-2.79,5.75h0"/><path class="cls-20" d="m206.27,158.86c-.62.66-1.3,1.28-2.05,1.84-3.44,2.56-7.62,3.42-11.54,2.74,0,0,0,0,0,0,6.08,3.83,10.35,9.97,11.82,17l.6,2.87c4.24-6.12,4.94-13.67,2.51-20.18h0s-1.33-4.27-1.33-4.27Z"/><path class="cls-32" d="m206.27,158.86c-.62.66-1.3,1.28-2.05,1.84-3.44,2.56-7.62,3.42-11.54,2.74h0c6.08,3.83,10.35,9.97,11.82,17"/><circle class="cls-33" cx="257.43" cy="118.9" r="6.46"/><line class="cls-8" x1="260.51" y1="163.73" x2="256.93" y2="165.12"/><line class="cls-8" x1="257.97" y1="145.14" x2="254.84" y2="147.36"/><line class="cls-30" x1="270.04" y1="162.42" x2="273.67" y2="163.66"/><path class="cls-19" d="m266.58,182.05l-9.79-63.93s7.83,12.11,9.2,19.64c1.89,10.37.59,44.29.59,44.29Z"/><line class="cls-35" x1="264.12" y1="182.38" x2="256.56" y2="133.02"/><line class="cls-8" x1="256.13" y1="137.77" x2="261.23" y2="175.27"/><line class="cls-30" x1="267.33" y1="136.54" x2="269.36" y2="139.8"/><line class="cls-30" x1="269.38" y1="151.37" x2="272.63" y2="153.42"/><line class="cls-8" x1="258.34" y1="154.45" x2="255.1" y2="156.5"/><line class="cls-23" x1="262.43" y1="155.5" x2="260.81" y2="158.98"/><line class="cls-23" x1="260.92" y1="139.01" x2="258.82" y2="142.22"/><line class="cls-23" x1="262.98" y1="171.29" x2="259.63" y2="169.43"/><line class="cls-23" x1="197.64" y1="218.67" x2="194.64" y2="217.35"/><line class="cls-23" x1="233.26" y1="184.39" x2="232.52" y2="187.58"/><line class="cls-23" x1="219.06" y1="192.27" x2="216.01" y2="193.48"/><path class="cls-19" d="m237.36,175.35l-25.93,35.41c-7.15,9.54-20.69,11.47-30.23,4.32h0"/><line class="cls-23" x1="229.75" y1="194.95" x2="226.73" y2="191"/><line class="cls-23" x1="220.3" y1="199.51" x2="219.72" y2="202.74"/><line class="cls-23" x1="212.8" y1="203.42" x2="209.88" y2="204.92"/><line class="cls-23" x1="210.92" y1="214.52" x2="211.14" y2="217.79"/><line class="cls-23" x1="203.72" y1="222.81" x2="203.05" y2="226.02"/><line class="cls-23" x1="194.93" y1="217.36" x2="191.83" y2="216.29"/><line class="cls-19" x1="266.58" y1="182.05" x2="237.36" y2="175.35"/><line class="cls-4" x1="53.9" y1="155.37" x2="51.56" y2="152.37"/><line class="cls-4" x1="60.06" y1="153.19" x2="58.75" y2="149.62"/><line class="cls-4" x1="42.09" y1="165.04" x2="38.73" y2="163.27"/><path class="cls-51" d="m41.95,221.57l2.57.02c21.06.16,39.55-13.96,44.95-34.32h0c3.64-13.74-4.55-27.82-18.29-31.46h0c-13.74-3.64-27.82,4.55-31.46,18.29l-8.76,33.08c-1.92,7.24,3.51,14.34,11,14.4Z"/><path class="cls-42" d="m52.12,200.58h0c-6.55-6.55-11.02-14.4-13.41-22.72l-7.76,29.3c-1.92,7.24,3.51,14.34,11,14.4l2.57.02c10.01.08,19.45-3.08,27.17-8.6-7.14-2.55-13.84-6.69-19.56-12.41Z"/><path class="cls-42" d="m27.79,232.93h0c5.92,7.13,9.66,15.35,11.28,23.85l10.41-28.47c2.57-7.03-2.18-14.6-9.63-15.35l-2.55-.25c-9.97-.99-19.65,1.29-27.84,6.08,6.88,3.2,13.17,7.93,18.34,14.15Z"/><path class="cls-39" d="m71.17,155.8h0c-13.54-3.58-27.41,4.31-31.29,17.69,5.98-8.71,17-13.17,27.8-10.3h0c13.74,3.64,21.92,17.72,18.29,31.46h0c-.38,1.42-.82,2.81-1.32,4.17,2.08-3.55,3.72-7.42,4.81-11.55h0c3.64-13.74-4.55-27.82-18.29-31.46Z"/><path class="cls-46" d="m89.57,186.81c3.34-13.59-4.82-27.41-18.4-31h0c-2.2-.58-4.4-.86-6.57-.86-2.06,8.44.2,17.73,6.79,24.33h0c5.02,5.02,11.6,7.53,18.18,7.54Z"/><path class="cls-42" d="m71.17,155.8c-2.2-.58-4.4-.86-6.57-.86-2.06,8.44.2,17.73,6.79,24.33l-.22-23.46Z"/><path class="cls-13" d="m71.15,197.23c5.95,3.24,12.74,3.9,18.95,2.24"/><path class="cls-13" d="m60.12,203.94c5.36,5.83,12.79,8.63,20.13,8.29"/><line class="cls-4" x1="45.1" y1="162.01" x2="42.74" y2="159.94"/><path class="cls-16" d="m126.97,147.69h0s5.37-11.47-4.5-23.06"/><path class="cls-65" d="m118.45,120.73c12.17-13.57,30.06-9.93,41.68,2.04,2.56,2.59,4.61,5.55,6,8.89.43,1.12.82,2.26,1.07,3.47.35,1.74-.77,3.44-2.51,3.79-.77.15-1.52.02-2.16-.32-3.75-2.12-6.92-5.15-10-8-5.34-5.06-11.69-9.02-19.03-8.41-3.52.31-6.95,1.69-9.94,3.53,0,0-2.02.37-2.02.37-3.01.59-5.08-3.1-3.07-5.36h0Z"/><line class="cls-6" x1="164.33" y1="128.51" x2="162.77" y2="129.5"/><line class="cls-6" x1="157.06" y1="120.63" x2="155.52" y2="122.96"/><line class="cls-6" x1="147.88" y1="115.38" x2="146.94" y2="118.07"/><line class="cls-6" x1="136.9" y1="113.38" x2="136.65" y2="116.22"/><line class="cls-6" x1="126.08" y1="115.7" x2="127.13" y2="117.94"/><path class="cls-48" d="m138.21,175.53c1.42.96,3.32.7,4.47-.57,2.81-3.1,7.17-4.29,11.49-3.26,1.48.36,2.82.97,3.99,1.77.58-5.52-2.79-10.94-8.45-12.63-7.26-2.17-15.04.74-19.2,6.81-.8,1.17-1.43,2.45-1.92,3.78l-1.13,3.08c-.66,1.8.26,3.79,2.06,4.45h0c1.8.66,3.79-.26,4.45-2.06h0c.63-1.73,2.72-2.4,4.24-1.38h0Z"/><path class="cls-15" d="m149.5,160.68c-5.3-1.58-10.89-.45-15.14,2.64"/><path class="cls-49" d="m148.04,171.74c-1.36-.36-2.79-.52-4.28-.45-5.89.29-11.16,3.15-14.68,7.48.14.08.29.14.44.2,1.8.66,3.79-.26,4.45-2.06.63-1.73,2.72-2.4,4.24-1.38,1.42.96,3.32.7,4.47-.57,1.44-1.59,3.3-2.68,5.35-3.22Z"/><path class="cls-9" d="m141.4,176.46l1.04,3.71-2.85-2.59c-.55-.5-.46-1.38.16-1.76h0c.63-.39,1.45-.07,1.65.64Z"/><path class="cls-9" d="m150.7,171.96l-.64,3.79-1.48-3.55c-.28-.68.17-1.44.9-1.53h0c.73-.08,1.34.56,1.22,1.29Z"/><path class="cls-9" d="m158.03,174.98l-1.23,2.58-.33-2.84c-.06-.54.41-1,.95-.91h0c.54.09.85.67.61,1.17Z"/><line class="cls-5" x1="120.62" y1="141.32" x2="121.88" y2="136.93"/><line class="cls-5" x1="130.9" y1="148.83" x2="132.64" y2="147.1"/><line class="cls-5" x1="101.7" y1="134.05" x2="101.96" y2="131.62"/><path class="cls-5" d="m134.26,182.25c4.66-1.42,5.02,3,5.29,3.05"/><path class="cls-47" d="m120.59,185.34l-29.98-13.21c-9.77-4.31-14.2-15.72-9.89-25.49h0c4.31-9.78,15.72-14.2,25.49-9.9l10.72,4.72c15.09,6.65,21.93,24.27,15.28,39.36h0c-1.96,4.46-7.17,6.48-11.63,4.51Z"/><path class="cls-6" d="m131.85,184.68c-.52,4.43,3.41,4.42,3.41,4.42"/><path class="cls-47" d="m107.97,137.87c-2.85-3.17-2.71-6.24-.99-10.79-2.29,4.4-4.13,6.68-7.12,7.52-1.16.32-1.8,1.55-1.37,2.67l.43,1.11c1.36,3.54,5.74,4.79,8.76,2.49l.04-.03c.95-.72,1.05-2.09.26-2.97Z"/><path class="cls-47" d="m101.53,132.16c-3.6-.75-5.07-2.96-6.18-6.99.65,4.22.54,6.74-1.12,8.85-.64.81-.47,1.99.4,2.55l.86.55c2.75,1.77,6.42.4,7.35-2.73v-.04c.31-.98-.32-1.99-1.32-2.19Z"/><line class="cls-57" x1="108.53" y1="136.18" x2="108.64" y2="133.91"/><line class="cls-57" x1="116.13" y1="137.64" x2="117.05" y2="135.57"/><line class="cls-57" x1="132.45" y1="153.5" x2="134.81" y2="152.84"/><path class="cls-38" d="m80.09,136.4c-3.66.3-5.69-1.41-7.9-4.97,1.81,3.87,2.42,6.32,1.42,8.81-.38.96.12,2.04,1.11,2.33l.98.29c3.13.92,6.28-1.42,6.29-4.69v-.05c0-1.02-.88-1.81-1.9-1.73Z"/><path class="cls-38" d="m105.66,188.66l-28.7-15.79c-9.36-5.15-12.77-16.91-7.62-26.26h0c5.15-9.36,16.91-12.77,26.26-7.62l10.27,5.65c14.45,7.95,19.72,26.11,11.77,40.55h0c-2.35,4.27-7.71,5.82-11.98,3.48Z"/><path class="cls-47" d="m69.75,166.92c-3.15-2.87-6.23-2.75-10.78-1.05,4.41-2.26,6.71-4.09,7.56-7.08.33-1.15,1.56-1.79,2.67-1.36l1.11.43c3.53,1.38,4.75,5.76,2.44,8.77l-.03.04c-.72.94-2.09,1.04-2.97.24Z"/><path class="cls-47" d="m75.06,171.38c-2.73-.52-4.4.6-6.34,3.11,1.67-2.76,2.32-4.56,1.78-6.52-.21-.75.25-1.53,1.02-1.67l.76-.14c2.43-.44,4.61,1.57,4.36,4.03v.03c-.08.77-.81,1.29-1.57,1.15Z"/><path class="cls-47" d="m74.33,158.73c-2.73-4.48-4.17-9.67-3.55-14.36-.52.7-1,1.44-1.43,2.22h0c-5.15,9.36-1.74,21.12,7.62,26.27l28.7,15.79c4.27,2.35,9.63.79,11.98-3.48,1.98-3.6,3.14-7.43,3.54-11.27-.03.02-.06.04-.09.06-3.31,2.27-6.56-.56-6.61-4.58-.04-3.21-2.48-5.97-4.9-8.45-5-5.12-13.22-5.22-18.34-.22h0c-4.96,4.95-13.26,3.98-16.9-2Z"/><path class="cls-26" d="m69.93,159.62c1.12,4.07,3.76,7.41,7.2,9.48"/><path class="cls-26" d="m83.03,173.06c.66.63,3.16,2.13,3.16,2.13"/><path class="cls-15" d="m105.87,144.63c10.84,5.96,16.51,17.67,15.31,29.24"/><path class="cls-3" d="m89.31,136.82c2.15.34,4.28,1.05,6.29,2.16l10.27,5.65c6.61,3.64,11.3,9.42,13.68,16"/><line class="cls-59" x1="101.48" y1="146.5" x2="103.02" y2="144.21"/><line class="cls-59" x1="88.57" y1="135.64" x2="88.11" y2="132.91"/><line class="cls-10" x1="76.71" y1="138.53" x2="74.94" y2="136.41"/><line class="cls-10" x1="84.29" y1="143.13" x2="82.68" y2="140.88"/><line class="cls-59" x1="112.48" y1="147.63" x2="114.45" y2="145.69"/><line class="cls-59" x1="121.91" y1="157.76" x2="124.45" y2="156.67"/><line class="cls-59" x1="99.32" y1="139.94" x2="100.39" y2="137.39"/><rect class="cls-41" x="96.79" y="164.23" width="8.61" height="4.98" rx="2.49" ry="2.49" transform="translate(17.58 342.9) rotate(-123.41)"/><line class="cls-45" x1="102.4" y1="166.7" x2="103.19" y2="167.98"/><path class="cls-9" d="m129.26,202.55l3.76-.83-2.74,2.7c-.52.52-1.4.39-1.75-.26h0c-.35-.65.01-1.45.73-1.61Z"/><path class="cls-9" d="m127.11,195.15l3.75.85-3.63,1.28c-.7.25-1.43-.24-1.48-.98h0c-.04-.74.63-1.31,1.35-1.15Z"/><path class="cls-9" d="m128.8,187.94l1.67,2.32-2.65-1.07c-.51-.21-.68-.84-.34-1.27h0c.34-.43,1-.42,1.32.03Z"/><path class="cls-47" d="m124,188.9c-2.82,4.65-2.07,10.71,1.8,14.53,1.08,1.07,2.3,1.87,3.6,2.44-4.37,3.4-10.72,3.4-15.13-.49-5.41-4.78-7.15-12.42-4.71-18.96.73-1.96,3.14-2.68,4.79-1.39h0c1.34,1.04,3.28.8,4.32-.54l.76-.98c1.17-1.51,3.34-1.78,4.85-.6h0c1.51,1.17,1.78,3.34.6,4.85l-.89,1.15Z"/><path class="cls-14" d="m129.4,205.87c-4.37,3.4-10.72,3.4-15.13-.49-5.41-4.78-7.15-12.42-4.71-18.96"/><path class="cls-15" d="m124,188.9c-2.82,4.65-2.07,10.71,1.8,14.53"/><ellipse class="cls-36" cx="101.44" cy="166.88" rx="10.13" ry="8.15" transform="translate(-72.08 256.5) rotate(-86.02)"/><path class="cls-43" d="m99.3,157.19c4.35-1.63,8.84,1.39,10.02,6.74,1.18,5.35-1.39,11.01-5.74,12.63"/><ellipse class="cls-67" cx="101.44" cy="166.88" rx="6.37" ry="8.29" transform="translate(-1.1 .67) rotate(-.38)"/><ellipse class="cls-69" cx="102.67" cy="165.63" rx="4.03" ry="4.04" transform="translate(-79.34 235.28) rotate(-79.15)"/><circle class="cls-68" cx="98.32" cy="170.09" r="1.79"/><circle class="cls-68" cx="104.57" cy="164.93" r="2.75"/><line class="cls-29" x1="183.66" y1="229.56" x2="185.34" y2="226.39"/><line class="cls-29" x1="129.84" y1="224.3" x2="132.64" y2="226.54"/><line class="cls-29" x1="146.61" y1="222.09" x2="150.05" y2="221.05"/><path class="cls-18" d="m120.2,219.33l46.26,12.8c12.61,3.33,25.53-4.18,28.87-16.79h0"/><line class="cls-29" x1="136.56" y1="221.12" x2="140.09" y2="221.79"/><line class="cls-29" x1="151.23" y1="228.48" x2="153.91" y2="230.87"/><line class="cls-29" x1="160.31" y1="226.75" x2="163.83" y2="226.07"/><line class="cls-29" x1="169.45" y1="235" x2="171.48" y2="237.96"/><line class="cls-29" x1="181.25" y1="237.23" x2="184" y2="239.53"/><line class="cls-29" x1="185.1" y1="226.6" x2="187.03" y2="223.57"/><circle class="cls-27" cx="54.42" cy="188.91" r="7.06"/><line class="cls-4" x1="87.9" y1="224.9" x2="91.68" y2="223.07"/><line class="cls-4" x1="74.96" y1="208.96" x2="79.08" y2="208.12"/><path class="cls-18" d="m97.98,243.44l-43.7-55.63s3.81,15.3,8.79,22.03c6.86,9.26,34.91,33.6,34.91,33.6Z"/><line class="cls-18" x1="97.98" y1="243.44" x2="120.2" y2="219.33"/><line class="cls-4" x1="70.3" y1="202.2" x2="96.42" y2="234.31"/><line class="cls-31" x1="63.49" y1="210.23" x2="64.58" y2="214.29"/><line class="cls-58" x1="61.19" y1="194.52" x2="65.27" y2="193.54"/><line class="cls-31" x1="71.4" y1="222.73" x2="70.61" y2="226.85"/><line class="cls-4" x1="82.12" y1="216.22" x2="86.18" y2="215.16"/><line class="cls-31" x1="79.73" y1="231.52" x2="78" y2="235.34"/><line class="cls-29" x1="78.46" y1="220.76" x2="82.63" y2="221.25"/><line class="cls-29" x1="65.07" y1="202.66" x2="68.8" y2="204.59"/><line class="cls-4" x1="96.5" y1="234.56" x2="97.51" y2="230.48"/></g></svg>