<?xml version="1.0" encoding="UTF-8"?><svg xmlns="http://www.w3.org/2000/svg" xmlns:xlink="http://www.w3.org/1999/xlink" viewBox="0 0 300 300"><defs><style>.cls-1,.cls-2,.cls-3,.cls-4,.cls-5,.cls-6,.cls-7,.cls-8,.cls-9,.cls-10,.cls-11,.cls-12,.cls-13,.cls-14,.cls-15,.cls-16,.cls-17,.cls-18,.cls-19,.cls-20,.cls-21,.cls-22,.cls-23,.cls-24,.cls-25,.cls-26,.cls-27,.cls-28,.cls-29,.cls-30,.cls-31,.cls-32,.cls-33,.cls-34,.cls-35,.cls-36,.cls-37,.cls-38,.cls-39,.cls-40,.cls-41,.cls-42,.cls-43,.cls-44,.cls-45,.cls-46,.cls-47,.cls-48,.cls-49,.cls-50,.cls-51,.cls-52,.cls-53,.cls-54,.cls-55,.cls-56,.cls-57,.cls-58,.cls-59,.cls-60,.cls-61,.cls-62,.cls-63,.cls-64,.cls-65,.cls-66,.cls-67,.cls-68,.cls-69,.cls-70{stroke-linecap:round;}.cls-1,.cls-2,.cls-3,.cls-6,.cls-7,.cls-8,.cls-71,.cls-9,.cls-10,.cls-11,.cls-13,.cls-14,.cls-15,.cls-16,.cls-17,.cls-18,.cls-19,.cls-20,.cls-21,.cls-22,.cls-23,.cls-24,.cls-25,.cls-26,.cls-27,.cls-28,.cls-72,.cls-29,.cls-30,.cls-33,.cls-34,.cls-35,.cls-36,.cls-37,.cls-39,.cls-40,.cls-43,.cls-44,.cls-45,.cls-46,.cls-48,.cls-49,.cls-50,.cls-51,.cls-52,.cls-53,.cls-54,.cls-55,.cls-56,.cls-57,.cls-58,.cls-59,.cls-60,.cls-62,.cls-63,.cls-64,.cls-66,.cls-67,.cls-69{fill:none;}.cls-1,.cls-6,.cls-9,.cls-10,.cls-11,.cls-13,.cls-14,.cls-15,.cls-17,.cls-18,.cls-19,.cls-20,.cls-22,.cls-23,.cls-24,.cls-26,.cls-27,.cls-28,.cls-72,.cls-73,.cls-74,.cls-29,.cls-31,.cls-33,.cls-34,.cls-35,.cls-37,.cls-38,.cls-39,.cls-40,.cls-43,.cls-44,.cls-45,.cls-46,.cls-47,.cls-48,.cls-50,.cls-51,.cls-52,.cls-54,.cls-56,.cls-57,.cls-58,.cls-60,.cls-61,.cls-62,.cls-63,.cls-66,.cls-68,.cls-69{stroke-miterlimit:10;}.cls-1,.cls-38,.cls-48,.cls-61{stroke:#f7fffe;}.cls-1,.cls-61{stroke-width:6.96px;}.cls-2{stroke-width:7.31px;}.cls-2,.cls-3,.cls-4,.cls-5,.cls-7,.cls-8,.cls-12,.cls-75,.cls-76,.cls-16,.cls-21,.cls-25,.cls-30,.cls-32,.cls-36,.cls-41,.cls-42,.cls-49,.cls-53,.cls-55,.cls-59,.cls-64,.cls-65,.cls-77,.cls-67,.cls-70{stroke-linejoin:round;}.cls-2,.cls-13,.cls-19,.cls-49,.cls-53{stroke:#c258f9;}.cls-3,.cls-30,.cls-42{stroke:#cf198c;}.cls-3,.cls-67{stroke-width:3.04px;}.cls-4{stroke-width:.55px;}.cls-4,.cls-16,.cls-55,.cls-65,.cls-67,.cls-70{stroke:#f95c81;}.cls-4,.cls-78,.cls-65,.cls-70{fill:#f95c81;}.cls-5{fill:#91a3ff;stroke:#91a3ff;}.cls-5,.cls-52,.cls-60{stroke-width:5.2px;}.cls-6{stroke-width:7.5px;}.cls-6,.cls-54,.cls-56{stroke:#f9277a;}.cls-7{stroke:#1f4ea6;}.cls-7,.cls-8{stroke-width:7.71px;}.cls-8,.cls-25{stroke:#254299;}.cls-79{clip-path:url(#clippath);}.cls-71,.cls-80,.cls-81,.cls-82,.cls-78,.cls-83,.cls-84,.cls-85,.cls-86,.cls-87,.cls-88,.cls-89,.cls-90,.cls-91,.cls-92,.cls-93,.cls-94,.cls-95,.cls-96,.cls-97,.cls-98,.cls-99,.cls-100,.cls-101,.cls-102,.cls-103,.cls-104,.cls-105,.cls-106,.cls-107,.cls-108,.cls-109,.cls-110,.cls-111,.cls-112,.cls-113,.cls-114,.cls-115,.cls-116,.cls-117,.cls-118,.cls-119,.cls-120,.cls-121,.cls-122,.cls-123,.cls-124,.cls-125,.cls-126,.cls-127,.cls-128,.cls-129,.cls-130,.cls-131,.cls-132{stroke-width:0px;}.cls-9,.cls-10,.cls-11{stroke-width:4.36px;}.cls-9,.cls-26,.cls-32{stroke:#393db8;}.cls-80{fill:#2b52cd;mix-blend-mode:hue;}.cls-10{stroke:#ea47ff;}.cls-11,.cls-59{stroke:#b845ff;}.cls-12{fill:#08f;stroke:#08f;stroke-width:3.27px;}.cls-75{stroke-width:.46px;}.cls-75,.cls-76,.cls-114,.cls-77{fill:#ff9752;}.cls-75,.cls-76,.cls-77{stroke:#ff9752;}.cls-76{stroke-width:.56px;}.cls-13,.cls-49{stroke-width:7.08px;}.cls-14{stroke:#ad39fa;}.cls-14,.cls-15{stroke-width:6.9px;}.cls-15{stroke:#7114ff;}.cls-16,.cls-30{stroke-width:2.92px;}.cls-17,.cls-18{stroke-width:4.28px;}.cls-17,.cls-52{stroke:#b93db7;}.cls-18{stroke:#8837b9;}.cls-19,.cls-53{stroke-width:6.93px;}.cls-20{stroke:#ffe6e6;stroke-width:3.57px;}.cls-21{stroke-width:4.89px;}.cls-21,.cls-36{stroke:#3a307a;}.cls-22{stroke:#ffaa0c;}.cls-22,.cls-23{stroke-width:7px;}.cls-23{stroke:#ffdd1b;}.cls-24{stroke:#ff3be1;stroke-width:3.5px;}.cls-25{stroke-width:3.29px;}.cls-26,.cls-27,.cls-28{stroke-width:3.91px;}.cls-27{stroke:#ac30d1;}.cls-28,.cls-37{stroke:#ff7070;}.cls-72,.cls-50{stroke:#ff4747;}.cls-72,.cls-50,.cls-51{stroke-width:5.01px;}.cls-73{fill:#f97f02;}.cls-73,.cls-74{stroke:#8f01e0;stroke-width:1.89px;}.cls-74,.cls-90{fill:#f9c303;}.cls-29{stroke:#fff;stroke-width:2.43px;}.cls-31{fill:#fffb00;stroke:#fffb00;}.cls-31,.cls-38,.cls-48{stroke-width:6.55px;}.cls-32,.cls-42,.cls-55,.cls-59{stroke-width:3.9px;}.cls-32,.cls-102{fill:#393db8;}.cls-33{stroke:#bf3beb;stroke-width:4.04px;}.cls-34{stroke:#ffac12;}.cls-34,.cls-35{stroke-width:7.91px;}.cls-35{stroke:#ffdf29;}.cls-36{stroke-width:4.1px;}.cls-37{stroke-width:9.92px;}.cls-38,.cls-61{fill:#f7fffe;}.cls-39{stroke-width:6.57px;}.cls-39,.cls-51{stroke:#fb0;}.cls-40{stroke-width:2.94px;}.cls-40,.cls-66{stroke:#0e9585;}.cls-41{fill:#6638c5;stroke:#6638c5;stroke-width:4.38px;}.cls-42,.cls-105{fill:#cf198c;}.cls-43{stroke-width:2.63px;}.cls-43,.cls-45{stroke:#29dc83;}.cls-44{stroke:#ffd782;stroke-width:3.28px;}.cls-45{stroke-width:2.47px;}.cls-46{stroke:#f9569f;stroke-width:5.62px;}.cls-81{fill:url(#Unbenannter_Verlauf_18);}.cls-47{fill:#5aecff;stroke:#5aecff;stroke-width:5.99px;}.cls-133{isolation:isolate;}.cls-54{stroke-width:6.41px;}.cls-56{stroke-width:6.54px;}.cls-57{stroke:#cc2da8;}.cls-57,.cls-58,.cls-69{stroke-width:5.8px;}.cls-58{stroke:#d41573;}.cls-60{stroke:#f350a5;}.cls-62{stroke:#f9bfb6;}.cls-62,.cls-63{stroke-width:6.46px;}.cls-63{stroke:#f8e4e0;}.cls-82{fill:#f9c062;}.cls-83{fill:#f97b99;}.cls-84{fill:#f9803e;}.cls-85{fill:#f93b80;}.cls-86{fill:#f95880;}.cls-87{fill:#f92a6c;}.cls-88{fill:#f9f489;}.cls-89{fill:#f9569f;}.cls-91{fill:#781fff;}.cls-92{fill:#7b30a2;}.cls-93{fill:#7114ff;}.cls-94{fill:#4e2984;}.cls-95,.cls-68{fill:#3488ff;}.cls-96{fill:#29dc83;}.cls-97{fill:#28e087;}.cls-98{fill:#5ab2ff;}.cls-99{fill:#65178d;}.cls-100{fill:#a504b2;}.cls-101{fill:#7300ab;}.cls-103{fill:#0e9585;}.cls-104{fill:#d41573;}.cls-106{fill:#ad39fa;}.cls-107{fill:#d747a6;}.cls-108{fill:#a76ce2;}.cls-109{fill:#b752fa;}.cls-110{fill:#8f01e0;}.cls-111{fill:#b845ff;}.cls-112{fill:#8f63cb;}.cls-113{fill:#7dff7f;}.cls-115{fill:#ff7575;}.cls-116{fill:#ff78e2;}.cls-117{fill:#ff863b;}.cls-118{fill:#8169f9;}.cls-119{fill:#fff;}.cls-120{fill:#ffee2e;}.cls-121{fill:#fff047;}.cls-122{fill:#ff4747;}.cls-123{fill:#ff336a;}.cls-124{fill:#ffa759;}.cls-125{fill:#ffaa0c;}.cls-126{fill:#fb0;}.cls-127{fill:#00b07b;}.cls-128{fill:#01ac7b;}.cls-129{fill:#005280;}.cls-130{fill:#004680;}.cls-131{fill:#00827e;}.cls-132{fill:#009274;}.cls-64{stroke:#2f55c4;stroke-width:7.16px;}.cls-65{stroke-width:.47px;}.cls-77{stroke-width:.48px;}.cls-66{stroke-width:3.14px;}.cls-68{stroke:#3488ff;stroke-width:12.18px;}.cls-69{stroke:#f9803e;}.cls-70{stroke-width:.45px;}</style><clipPath id="clippath"><circle class="cls-71" cx="150" cy="150" r="130"/></clipPath><linearGradient id="Unbenannter_Verlauf_18" x1="150" y1="222.29" x2="150" y2="82.03" gradientUnits="userSpaceOnUse"><stop offset=".05" stop-color="#b3f7ff"/><stop offset=".73" stop-color="#2ff9f6"/></linearGradient></defs><g class="cls-133"><g id="Ebene_3"><g class="cls-79"><circle class="cls-81" cx="150" cy="150" r="130"/><line class="cls-48" x1="114.69" y1="108.76" x2="64.28" y2="105.77"/><ellipse class="cls-38" cx="67.23" cy="100.13" rx="8.43" ry="11.05" transform="translate(-33.58 166.35) rotate(-89.42)"/><ellipse class="cls-38" cx="82.64" cy="91.03" rx="8.43" ry="11.05" transform="translate(-9.23 172.74) rotate(-89.42)"/><ellipse class="cls-38" cx="90.55" cy="98.64" rx="7.61" ry="9.97" transform="translate(-9 188.18) rotate(-89.42)"/><ellipse class="cls-38" cx="107.44" cy="103.71" rx="4.46" ry="5.84" transform="translate(2.65 210.09) rotate(-89.42)"/><line class="cls-1" x1="225.3" y1="77.65" x2="200.03" y2="81.7"/><ellipse class="cls-61" cx="200.62" cy="77.97" rx="5.24" ry="4" transform="translate(-11.79 43.19) rotate(-11.94)"/><ellipse class="cls-61" cx="212.2" cy="73.33" rx="6.34" ry="4.84" transform="translate(-10.58 45.48) rotate(-11.94)"/><ellipse class="cls-38" cx="114.84" cy="106.56" rx="2.1" ry="2.75" transform="translate(7.12 220.31) rotate(-89.42)"/><ellipse class="cls-38" cx="90.48" cy="105.51" rx="4.46" ry="5.84" transform="translate(-15.94 194.92) rotate(-89.42)"/><ellipse class="cls-38" cx="78.79" cy="106.82" rx="5.71" ry="7.48" transform="translate(-28.82 184.53) rotate(-89.42)"/><ellipse class="cls-31" cx="179.06" cy="143.82" rx="2.25" ry="1.72" transform="translate(-23.41 35.4) rotate(-10.6)"/><rect class="cls-118" x="50.59" y="222.71" width="26.47" height="60.41"/><rect class="cls-78" x="24.5" y="207.45" width="15.8" height="77.35"/><rect class="cls-114" x="38.46" y="207.45" width="14.73" height="77.35"/><polygon class="cls-65" points="32.73 201.8 29.17 201.8 29.17 207.69 32.72 207.69 32.73 201.8"/><polygon class="cls-77" points="32.72 207.69 35.04 206.46 35.04 201.8 32.73 201.8 32.72 207.69"/><line class="cls-3" x1="24.5" y1="207.45" x2="38.46" y2="207.45"/><line class="cls-67" x1="38.46" y1="207.45" x2="53.19" y2="207.45"/><rect class="cls-105" x="26.14" y="225.84" width="4.4" height="4.17" rx=".95" ry=".95" transform="translate(256.27 199.58) rotate(90)"/><rect class="cls-105" x="26.14" y="218.55" width="4.4" height="4.17" rx=".95" ry=".95" transform="translate(248.99 192.3) rotate(90)"/><rect class="cls-105" x="26.14" y="211.27" width="4.4" height="4.17" rx=".95" ry=".95" transform="translate(241.7 185.01) rotate(90)"/><rect class="cls-105" x="32.32" y="225.84" width="4.4" height="4.17" rx=".95" ry=".95" transform="translate(262.45 193.4) rotate(90)"/><rect class="cls-105" x="32.32" y="218.55" width="4.4" height="4.17" rx=".95" ry=".95" transform="translate(255.16 186.12) rotate(90)"/><rect class="cls-105" x="32.32" y="211.27" width="4.4" height="4.17" rx=".95" ry=".95" transform="translate(247.88 178.83) rotate(90)"/><rect class="cls-105" x="26.14" y="247.7" width="4.4" height="4.17" rx=".95" ry=".95" transform="translate(278.13 221.44) rotate(90)"/><rect class="cls-105" x="26.14" y="240.41" width="4.4" height="4.17" rx=".95" ry=".95" transform="translate(270.85 214.16) rotate(90)"/><rect class="cls-105" x="26.14" y="233.13" width="4.4" height="4.17" rx=".95" ry=".95" transform="translate(263.56 206.87) rotate(90)"/><rect class="cls-105" x="32.32" y="247.7" width="4.4" height="4.17" rx=".95" ry=".95" transform="translate(284.31 215.26) rotate(90)"/><rect class="cls-105" x="32.32" y="240.41" width="4.4" height="4.17" rx=".95" ry=".95" transform="translate(277.02 207.98) rotate(90)"/><rect class="cls-105" x="32.32" y="233.13" width="4.4" height="4.17" rx=".95" ry=".95" transform="translate(269.74 200.69) rotate(90)"/><rect class="cls-105" x="26.14" y="269.55" width="4.4" height="4.17" rx=".95" ry=".95" transform="translate(299.98 243.29) rotate(90)"/><rect class="cls-105" x="26.14" y="262.26" width="4.4" height="4.17" rx=".95" ry=".95" transform="translate(292.69 236) rotate(90)"/><rect class="cls-105" x="26.14" y="254.97" width="4.4" height="4.17" rx=".95" ry=".95" transform="translate(285.4 228.71) rotate(90)"/><rect class="cls-105" x="32.32" y="269.55" width="4.4" height="4.17" rx=".95" ry=".95" transform="translate(306.15 237.11) rotate(90)"/><rect class="cls-105" x="32.32" y="262.26" width="4.4" height="4.17" rx=".95" ry=".95" transform="translate(298.87 229.82) rotate(90)"/><rect class="cls-105" x="32.32" y="254.97" width="4.4" height="4.17" rx=".95" ry=".95" transform="translate(291.58 222.54) rotate(90)"/><rect class="cls-78" x="40.48" y="225.84" width="4.4" height="4.17" rx=".95" ry=".95" transform="translate(270.61 185.25) rotate(90)"/><rect class="cls-78" x="40.48" y="218.55" width="4.4" height="4.17" rx=".95" ry=".95" transform="translate(263.32 177.96) rotate(90)"/><rect class="cls-78" x="40.48" y="211.27" width="4.4" height="4.17" rx=".95" ry=".95" transform="translate(256.03 170.68) rotate(90)"/><rect class="cls-78" x="46.65" y="225.84" width="4.4" height="4.17" rx=".95" ry=".95" transform="translate(276.78 179.07) rotate(90)"/><rect class="cls-78" x="46.65" y="218.55" width="4.4" height="4.17" rx=".95" ry=".95" transform="translate(269.5 171.79) rotate(90)"/><rect class="cls-78" x="46.65" y="211.27" width="4.4" height="4.17" rx=".95" ry=".95" transform="translate(262.21 164.5) rotate(90)"/><rect class="cls-78" x="40.48" y="247.7" width="4.4" height="4.17" rx=".95" ry=".95" transform="translate(292.47 207.11) rotate(90)"/><rect class="cls-78" x="40.48" y="240.41" width="4.4" height="4.17" rx=".95" ry=".95" transform="translate(285.18 199.82) rotate(90)"/><rect class="cls-78" x="40.48" y="233.13" width="4.4" height="4.17" rx=".95" ry=".95" transform="translate(277.89 192.54) rotate(90)"/><rect class="cls-78" x="46.65" y="247.7" width="4.4" height="4.17" rx=".95" ry=".95" transform="translate(298.64 200.93) rotate(90)"/><rect class="cls-78" x="46.65" y="240.41" width="4.4" height="4.17" rx=".95" ry=".95" transform="translate(291.36 193.64) rotate(90)"/><rect class="cls-78" x="46.65" y="233.13" width="4.4" height="4.17" rx=".95" ry=".95" transform="translate(284.07 186.36) rotate(90)"/><rect class="cls-78" x="40.48" y="269.55" width="4.4" height="4.17" rx=".95" ry=".95" transform="translate(314.31 228.95) rotate(90)"/><rect class="cls-78" x="40.48" y="262.26" width="4.4" height="4.17" rx=".95" ry=".95" transform="translate(307.02 221.67) rotate(90)"/><rect class="cls-78" x="40.48" y="254.97" width="4.4" height="4.17" rx=".95" ry=".95" transform="translate(299.74 214.38) rotate(90)"/><rect class="cls-78" x="46.65" y="269.55" width="4.4" height="4.17" rx=".95" ry=".95" transform="translate(320.49 222.78) rotate(90)"/><rect class="cls-78" x="46.65" y="262.26" width="4.4" height="4.17" rx=".95" ry=".95" transform="translate(313.2 215.49) rotate(90)"/><rect class="cls-78" x="46.65" y="254.97" width="4.4" height="4.17" rx=".95" ry=".95" transform="translate(305.91 208.2) rotate(90)"/><rect class="cls-78" x="289.1" y="211.72" width="15.8" height="77.35"/><polygon class="cls-65" points="297.33 206.07 293.77 206.07 293.77 211.96 297.32 211.96 297.33 206.07"/><polygon class="cls-77" points="297.32 211.96 299.64 210.73 299.64 206.07 297.33 206.07 297.32 211.96"/><line class="cls-3" x1="289.1" y1="211.72" x2="303.06" y2="211.72"/><rect class="cls-105" x="290.74" y="230.11" width="4.4" height="4.17" rx=".95" ry=".95" transform="translate(525.14 -60.75) rotate(90)"/><rect class="cls-105" x="290.74" y="222.82" width="4.4" height="4.17" rx=".95" ry=".95" transform="translate(517.86 -68.03) rotate(90)"/><rect class="cls-105" x="290.74" y="215.54" width="4.4" height="4.17" rx=".95" ry=".95" transform="translate(510.57 -75.32) rotate(90)"/><rect class="cls-105" x="296.92" y="230.11" width="4.4" height="4.17" rx=".95" ry=".95" transform="translate(531.32 -66.92) rotate(90)"/><rect class="cls-105" x="296.92" y="222.82" width="4.4" height="4.17" rx=".95" ry=".95" transform="translate(524.03 -74.21) rotate(90)"/><rect class="cls-105" x="296.92" y="215.54" width="4.4" height="4.17" rx=".95" ry=".95" transform="translate(516.75 -81.5) rotate(90)"/><rect class="cls-105" x="290.74" y="251.97" width="4.4" height="4.17" rx=".95" ry=".95" transform="translate(547 -38.89) rotate(90)"/><rect class="cls-105" x="290.74" y="244.68" width="4.4" height="4.17" rx=".95" ry=".95" transform="translate(539.71 -46.17) rotate(90)"/><rect class="cls-105" x="290.74" y="237.4" width="4.4" height="4.17" rx=".95" ry=".95" transform="translate(532.43 -53.46) rotate(90)"/><rect class="cls-105" x="296.92" y="251.97" width="4.4" height="4.17" rx=".95" ry=".95" transform="translate(553.18 -45.06) rotate(90)"/><rect class="cls-105" x="296.92" y="244.68" width="4.4" height="4.17" rx=".95" ry=".95" transform="translate(545.89 -52.35) rotate(90)"/><rect class="cls-105" x="296.92" y="237.4" width="4.4" height="4.17" rx=".95" ry=".95" transform="translate(538.61 -59.64) rotate(90)"/><rect class="cls-105" x="290.74" y="273.82" width="4.4" height="4.17" rx=".95" ry=".95" transform="translate(568.85 -17.04) rotate(90)"/><rect class="cls-105" x="290.74" y="266.53" width="4.4" height="4.17" rx=".95" ry=".95" transform="translate(561.56 -24.33) rotate(90)"/><rect class="cls-105" x="290.74" y="259.24" width="4.4" height="4.17" rx=".95" ry=".95" transform="translate(554.27 -31.62) rotate(90)"/><rect class="cls-105" x="296.92" y="273.82" width="4.4" height="4.17" rx=".95" ry=".95" transform="translate(575.02 -23.22) rotate(90)"/><rect class="cls-105" x="296.92" y="266.53" width="4.4" height="4.17" rx=".95" ry=".95" transform="translate(567.74 -30.51) rotate(90)"/><rect class="cls-105" x="296.92" y="259.24" width="4.4" height="4.17" rx=".95" ry=".95" transform="translate(560.45 -37.79) rotate(90)"/><polygon class="cls-114" points="12.65 287.52 -8.38 287.52 -8.38 215.33 12.65 204.51 12.65 287.52"/><polygon class="cls-42" points="-7.33 204.51 -29.42 217.47 -9.45 217.47 12.65 204.51 -7.33 204.51"/><line class="cls-55" x1="-9.45" y1="217.47" x2="12.65" y2="204.51"/><rect class="cls-78" x="-4.38" y="241.57" width="5.65" height="5.35" rx="1.22" ry="1.22" transform="translate(242.69 245.8) rotate(90)"/><rect class="cls-78" x="-4.38" y="232.23" width="5.65" height="5.35" rx="1.22" ry="1.22" transform="translate(233.35 236.46) rotate(90)"/><rect class="cls-78" x="-4.38" y="222.88" width="5.65" height="5.35" rx="1.22" ry="1.22" transform="translate(224 227.11) rotate(90)"/><rect class="cls-78" x="3.54" y="241.57" width="5.65" height="5.35" rx="1.22" ry="1.22" transform="translate(250.61 237.88) rotate(90)"/><rect class="cls-78" x="3.54" y="232.23" width="5.65" height="5.35" rx="1.22" ry="1.22" transform="translate(241.27 228.54) rotate(90)"/><rect class="cls-78" x="3.54" y="222.88" width="5.65" height="5.35" rx="1.22" ry="1.22" transform="translate(231.92 219.19) rotate(90)"/><rect class="cls-78" x="3.54" y="213.54" width="5.65" height="5.35" rx="1.22" ry="1.22" transform="translate(222.58 209.85) rotate(90)"/><rect class="cls-78" x="-4.38" y="269.6" width="5.65" height="5.35" rx="1.22" ry="1.22" transform="translate(270.72 273.83) rotate(90)"/><rect class="cls-78" x="-4.38" y="260.26" width="5.65" height="5.35" rx="1.22" ry="1.22" transform="translate(261.38 264.49) rotate(90)"/><rect class="cls-78" x="-4.38" y="250.91" width="5.65" height="5.35" rx="1.22" ry="1.22" transform="translate(252.03 255.15) rotate(90)"/><rect class="cls-78" x="3.54" y="269.6" width="5.65" height="5.35" rx="1.22" ry="1.22" transform="translate(278.64 265.91) rotate(90)"/><rect class="cls-78" x="3.54" y="260.26" width="5.65" height="5.35" rx="1.22" ry="1.22" transform="translate(269.3 256.57) rotate(90)"/><rect class="cls-78" x="3.54" y="250.91" width="5.65" height="5.35" rx="1.22" ry="1.22" transform="translate(259.95 247.22) rotate(90)"/><rect class="cls-78" x="-4.38" y="278.93" width="5.65" height="5.35" rx="1.22" ry="1.22" transform="translate(280.05 283.16) rotate(90)"/><rect class="cls-78" x="3.54" y="278.93" width="5.65" height="5.35" rx="1.22" ry="1.22" transform="translate(287.97 275.24) rotate(90)"/><rect class="cls-78" x="239" y="152.06" width="15.15" height="74.16"/><rect class="cls-114" x="252.38" y="152.06" width="14.12" height="74.16"/><polygon class="cls-70" points="246.88 146.65 243.47 146.65 243.47 152.29 246.88 152.29 246.88 146.65"/><polygon class="cls-75" points="246.88 152.29 249.1 151.12 249.1 146.65 246.88 146.65 246.88 152.29"/><line class="cls-30" x1="239" y1="152.06" x2="252.38" y2="152.06"/><line class="cls-16" x1="252.38" y1="152.06" x2="266.5" y2="152.06"/><rect class="cls-105" x="240.57" y="169.7" width="4.22" height="4" rx=".92" ry=".92" transform="translate(414.38 -70.98) rotate(90)"/><rect class="cls-105" x="240.57" y="162.71" width="4.22" height="4" rx=".92" ry=".92" transform="translate(407.39 -77.97) rotate(90)"/><rect class="cls-105" x="240.57" y="155.73" width="4.22" height="4" rx=".92" ry=".92" transform="translate(400.41 -84.95) rotate(90)"/><rect class="cls-105" x="246.49" y="169.7" width="4.22" height="4" rx=".92" ry=".92" transform="translate(420.3 -76.9) rotate(90)"/><rect class="cls-105" x="246.49" y="162.71" width="4.22" height="4" rx=".92" ry=".92" transform="translate(413.31 -83.89) rotate(90)"/><rect class="cls-105" x="246.49" y="155.73" width="4.22" height="4" rx=".92" ry=".92" transform="translate(406.33 -90.87) rotate(90)"/><rect class="cls-105" x="240.57" y="190.66" width="4.22" height="4" rx=".92" ry=".92" transform="translate(435.33 -50.02) rotate(90)"/><rect class="cls-105" x="240.57" y="183.67" width="4.22" height="4" rx=".92" ry=".92" transform="translate(428.35 -57.01) rotate(90)"/><rect class="cls-105" x="240.57" y="176.68" width="4.22" height="4" rx=".92" ry=".92" transform="translate(421.36 -63.99) rotate(90)"/><rect class="cls-105" x="246.49" y="190.66" width="4.22" height="4" rx=".92" ry=".92" transform="translate(441.26 -55.95) rotate(90)"/><rect class="cls-105" x="246.49" y="183.67" width="4.22" height="4" rx=".92" ry=".92" transform="translate(434.27 -62.93) rotate(90)"/><rect class="cls-105" x="246.49" y="176.68" width="4.22" height="4" rx=".92" ry=".92" transform="translate(427.28 -69.92) rotate(90)"/><rect class="cls-105" x="240.57" y="211.6" width="4.22" height="4" rx=".92" ry=".92" transform="translate(456.28 -29.08) rotate(90)"/><rect class="cls-105" x="240.57" y="204.61" width="4.22" height="4" rx=".92" ry=".92" transform="translate(449.29 -36.07) rotate(90)"/><rect class="cls-105" x="240.57" y="197.63" width="4.22" height="4" rx=".92" ry=".92" transform="translate(442.31 -43.05) rotate(90)"/><rect class="cls-105" x="246.49" y="211.6" width="4.22" height="4" rx=".92" ry=".92" transform="translate(462.2 -35) rotate(90)"/><rect class="cls-105" x="246.49" y="204.61" width="4.22" height="4" rx=".92" ry=".92" transform="translate(455.21 -41.99) rotate(90)"/><rect class="cls-105" x="246.49" y="197.63" width="4.22" height="4" rx=".92" ry=".92" transform="translate(448.23 -48.97) rotate(90)"/><rect class="cls-78" x="254.31" y="169.7" width="4.22" height="4" rx=".92" ry=".92" transform="translate(428.12 -84.72) rotate(90)"/><rect class="cls-78" x="254.31" y="162.71" width="4.22" height="4" rx=".92" ry=".92" transform="translate(421.13 -91.71) rotate(90)"/><rect class="cls-78" x="254.31" y="155.73" width="4.22" height="4" rx=".92" ry=".92" transform="translate(414.15 -98.69) rotate(90)"/><rect class="cls-78" x="260.23" y="169.7" width="4.22" height="4" rx=".92" ry=".92" transform="translate(434.04 -90.64) rotate(90)"/><rect class="cls-78" x="260.23" y="162.71" width="4.22" height="4" rx=".92" ry=".92" transform="translate(427.05 -97.63) rotate(90)"/><rect class="cls-78" x="260.23" y="155.73" width="4.22" height="4" rx=".92" ry=".92" transform="translate(420.07 -104.62) rotate(90)"/><rect class="cls-78" x="254.31" y="190.66" width="4.22" height="4" rx=".92" ry=".92" transform="translate(449.08 -63.76) rotate(90)"/><rect class="cls-78" x="254.31" y="183.67" width="4.22" height="4" rx=".92" ry=".92" transform="translate(442.09 -70.75) rotate(90)"/><rect class="cls-78" x="254.31" y="176.68" width="4.22" height="4" rx=".92" ry=".92" transform="translate(435.1 -77.74) rotate(90)"/><rect class="cls-78" x="260.23" y="190.66" width="4.22" height="4" rx=".92" ry=".92" transform="translate(455 -69.69) rotate(90)"/><rect class="cls-78" x="260.23" y="183.67" width="4.22" height="4" rx=".92" ry=".92" transform="translate(448.01 -76.67) rotate(90)"/><rect class="cls-78" x="260.23" y="176.68" width="4.22" height="4" rx=".92" ry=".92" transform="translate(441.03 -83.66) rotate(90)"/><rect class="cls-78" x="254.31" y="211.6" width="4.22" height="4" rx=".92" ry=".92" transform="translate(470.02 -42.82) rotate(90)"/><rect class="cls-78" x="254.31" y="204.61" width="4.22" height="4" rx=".92" ry=".92" transform="translate(463.03 -49.81) rotate(90)"/><rect class="cls-78" x="254.31" y="197.63" width="4.22" height="4" rx=".92" ry=".92" transform="translate(456.05 -56.79) rotate(90)"/><rect class="cls-78" x="260.23" y="211.6" width="4.22" height="4" rx=".92" ry=".92" transform="translate(475.94 -48.74) rotate(90)"/><rect class="cls-78" x="260.23" y="204.61" width="4.22" height="4" rx=".92" ry=".92" transform="translate(468.95 -55.73) rotate(90)"/><rect class="cls-78" x="260.23" y="197.63" width="4.22" height="4" rx=".92" ry=".92" transform="translate(461.97 -62.72) rotate(90)"/><rect class="cls-78" x="174.66" y="203.17" width="21.05" height="70.94"/><polygon class="cls-114" points="214.58 274.11 193.56 274.11 193.56 201.92 214.58 191.1 214.58 274.11"/><polygon class="cls-42" points="194.61 191.1 172.51 204.06 192.48 204.06 214.58 191.1 194.61 191.1"/><rect class="cls-4" x="185.01" y="188.48" width="4.14" height="7.96"/><polygon class="cls-76" points="189.14 196.45 191.83 195.02 191.83 188.48 189.15 188.48 189.14 196.45"/><line class="cls-55" x1="192.48" y1="204.06" x2="214.58" y2="191.1"/><rect class="cls-105" x="177.26" y="228.16" width="5.65" height="5.35" rx="1.22" ry="1.22" transform="translate(410.92 50.75) rotate(90)"/><rect class="cls-105" x="177.26" y="218.82" width="5.65" height="5.35" rx="1.22" ry="1.22" transform="translate(401.57 41.41) rotate(90)"/><rect class="cls-105" x="177.26" y="209.47" width="5.65" height="5.35" rx="1.22" ry="1.22" transform="translate(392.23 32.06) rotate(90)"/><rect class="cls-105" x="185.18" y="228.16" width="5.65" height="5.35" rx="1.22" ry="1.22" transform="translate(418.84 42.83) rotate(90)"/><rect class="cls-105" x="185.18" y="218.82" width="5.65" height="5.35" rx="1.22" ry="1.22" transform="translate(409.49 33.49) rotate(90)"/><rect class="cls-105" x="185.18" y="209.47" width="5.65" height="5.35" rx="1.22" ry="1.22" transform="translate(400.15 24.14) rotate(90)"/><rect class="cls-105" x="177.26" y="256.19" width="5.65" height="5.35" rx="1.22" ry="1.22" transform="translate(438.95 78.78) rotate(90)"/><rect class="cls-105" x="177.26" y="246.85" width="5.65" height="5.35" rx="1.22" ry="1.22" transform="translate(429.6 69.44) rotate(90)"/><rect class="cls-105" x="177.26" y="237.5" width="5.65" height="5.35" rx="1.22" ry="1.22" transform="translate(420.26 60.09) rotate(90)"/><rect class="cls-105" x="185.18" y="256.19" width="5.65" height="5.35" rx="1.22" ry="1.22" transform="translate(446.87 70.86) rotate(90)"/><rect class="cls-105" x="185.18" y="246.85" width="5.65" height="5.35" rx="1.22" ry="1.22" transform="translate(437.53 61.52) rotate(90)"/><rect class="cls-105" x="185.18" y="237.5" width="5.65" height="5.35" rx="1.22" ry="1.22" transform="translate(428.18 52.17) rotate(90)"/><rect class="cls-105" x="177.26" y="265.51" width="5.65" height="5.35" rx="1.22" ry="1.22" transform="translate(448.27 88.11) rotate(90)"/><rect class="cls-105" x="185.18" y="265.51" width="5.65" height="5.35" rx="1.22" ry="1.22" transform="translate(456.19 80.19) rotate(90)"/><rect class="cls-78" x="197.55" y="228.16" width="5.65" height="5.35" rx="1.22" ry="1.22" transform="translate(431.21 30.46) rotate(90)"/><rect class="cls-78" x="197.55" y="218.82" width="5.65" height="5.35" rx="1.22" ry="1.22" transform="translate(421.87 21.11) rotate(90)"/><rect class="cls-78" x="197.55" y="209.47" width="5.65" height="5.35" rx="1.22" ry="1.22" transform="translate(412.52 11.77) rotate(90)"/><rect class="cls-78" x="205.48" y="228.16" width="5.65" height="5.35" rx="1.22" ry="1.22" transform="translate(439.13 22.53) rotate(90)"/><rect class="cls-78" x="205.48" y="218.82" width="5.65" height="5.35" rx="1.22" ry="1.22" transform="translate(429.79 13.19) rotate(90)"/><rect class="cls-78" x="205.48" y="209.47" width="5.65" height="5.35" rx="1.22" ry="1.22" transform="translate(420.45 3.85) rotate(90)"/><rect class="cls-78" x="205.48" y="200.13" width="5.65" height="5.35" rx="1.22" ry="1.22" transform="translate(411.1 -5.5) rotate(90)"/><rect class="cls-78" x="197.55" y="256.19" width="5.65" height="5.35" rx="1.22" ry="1.22" transform="translate(459.24 58.49) rotate(90)"/><rect class="cls-78" x="197.55" y="246.85" width="5.65" height="5.35" rx="1.22" ry="1.22" transform="translate(449.9 49.14) rotate(90)"/><rect class="cls-78" x="197.55" y="237.5" width="5.65" height="5.35" rx="1.22" ry="1.22" transform="translate(440.56 39.8) rotate(90)"/><rect class="cls-78" x="205.48" y="256.19" width="5.65" height="5.35" rx="1.22" ry="1.22" transform="translate(467.16 50.57) rotate(90)"/><rect class="cls-78" x="205.48" y="246.85" width="5.65" height="5.35" rx="1.22" ry="1.22" transform="translate(457.82 41.22) rotate(90)"/><rect class="cls-78" x="205.48" y="237.5" width="5.65" height="5.35" rx="1.22" ry="1.22" transform="translate(448.48 31.88) rotate(90)"/><rect class="cls-78" x="197.55" y="265.51" width="5.65" height="5.35" rx="1.22" ry="1.22" transform="translate(468.57 67.81) rotate(90)"/><rect class="cls-78" x="205.48" y="265.51" width="5.65" height="5.35" rx="1.22" ry="1.22" transform="translate(476.49 59.89) rotate(90)"/><rect class="cls-78" x="241.14" y="214.37" width="21.05" height="70.94"/><polygon class="cls-114" points="281.07 285.31 260.04 285.31 260.04 213.12 281.07 202.3 281.07 285.31"/><polygon class="cls-42" points="261.09 202.3 239 215.27 258.97 215.27 281.07 202.3 261.09 202.3"/><rect class="cls-4" x="251.5" y="199.69" width="4.14" height="7.96"/><polygon class="cls-76" points="255.63 207.65 258.32 206.22 258.32 199.69 255.64 199.69 255.63 207.65"/><line class="cls-55" x1="258.97" y1="215.27" x2="281.07" y2="202.3"/><rect class="cls-105" x="243.74" y="239.36" width="5.65" height="5.35" rx="1.22" ry="1.22" transform="translate(488.61 -4.53) rotate(90)"/><rect class="cls-105" x="243.74" y="230.02" width="5.65" height="5.35" rx="1.22" ry="1.22" transform="translate(479.26 -13.87) rotate(90)"/><rect class="cls-105" x="243.74" y="220.67" width="5.65" height="5.35" rx="1.22" ry="1.22" transform="translate(469.92 -23.22) rotate(90)"/><rect class="cls-105" x="251.67" y="239.36" width="5.65" height="5.35" rx="1.22" ry="1.22" transform="translate(496.53 -12.45) rotate(90)"/><rect class="cls-105" x="251.67" y="230.02" width="5.65" height="5.35" rx="1.22" ry="1.22" transform="translate(487.18 -21.8) rotate(90)"/><rect class="cls-105" x="251.67" y="220.67" width="5.65" height="5.35" rx="1.22" ry="1.22" transform="translate(477.84 -31.14) rotate(90)"/><rect class="cls-105" x="243.74" y="267.39" width="5.65" height="5.35" rx="1.22" ry="1.22" transform="translate(516.64 23.5) rotate(90)"/><rect class="cls-105" x="243.74" y="258.05" width="5.65" height="5.35" rx="1.22" ry="1.22" transform="translate(507.29 14.16) rotate(90)"/><rect class="cls-105" x="243.74" y="248.71" width="5.65" height="5.35" rx="1.22" ry="1.22" transform="translate(497.95 4.81) rotate(90)"/><rect class="cls-105" x="251.67" y="267.39" width="5.65" height="5.35" rx="1.22" ry="1.22" transform="translate(524.56 15.58) rotate(90)"/><rect class="cls-105" x="251.67" y="258.05" width="5.65" height="5.35" rx="1.22" ry="1.22" transform="translate(515.22 6.24) rotate(90)"/><rect class="cls-105" x="251.67" y="248.71" width="5.65" height="5.35" rx="1.22" ry="1.22" transform="translate(505.87 -3.11) rotate(90)"/><rect class="cls-105" x="243.74" y="276.72" width="5.65" height="5.35" rx="1.22" ry="1.22" transform="translate(525.96 32.83) rotate(90)"/><rect class="cls-105" x="251.67" y="276.72" width="5.65" height="5.35" rx="1.22" ry="1.22" transform="translate(533.88 24.9) rotate(90)"/><rect class="cls-78" x="264.04" y="239.36" width="5.65" height="5.35" rx="1.22" ry="1.22" transform="translate(508.9 -24.83) rotate(90)"/><rect class="cls-78" x="264.04" y="230.02" width="5.65" height="5.35" rx="1.22" ry="1.22" transform="translate(499.56 -34.17) rotate(90)"/><rect class="cls-78" x="264.04" y="220.67" width="5.65" height="5.35" rx="1.22" ry="1.22" transform="translate(490.21 -43.51) rotate(90)"/><rect class="cls-78" x="271.96" y="239.36" width="5.65" height="5.35" rx="1.22" ry="1.22" transform="translate(516.82 -32.75) rotate(90)"/><rect class="cls-78" x="271.96" y="230.02" width="5.65" height="5.35" rx="1.22" ry="1.22" transform="translate(507.48 -42.09) rotate(90)"/><rect class="cls-78" x="271.96" y="220.67" width="5.65" height="5.35" rx="1.22" ry="1.22" transform="translate(498.14 -51.44) rotate(90)"/><rect class="cls-78" x="271.96" y="211.33" width="5.65" height="5.35" rx="1.22" ry="1.22" transform="translate(488.79 -60.78) rotate(90)"/><rect class="cls-78" x="264.04" y="267.39" width="5.65" height="5.35" rx="1.22" ry="1.22" transform="translate(536.93 3.21) rotate(90)"/><rect class="cls-78" x="264.04" y="258.05" width="5.65" height="5.35" rx="1.22" ry="1.22" transform="translate(527.59 -6.14) rotate(90)"/><rect class="cls-78" x="264.04" y="248.71" width="5.65" height="5.35" rx="1.22" ry="1.22" transform="translate(518.24 -15.48) rotate(90)"/><rect class="cls-78" x="271.96" y="267.39" width="5.65" height="5.35" rx="1.22" ry="1.22" transform="translate(544.85 -4.72) rotate(90)"/><rect class="cls-78" x="271.96" y="258.05" width="5.65" height="5.35" rx="1.22" ry="1.22" transform="translate(535.51 -14.06) rotate(90)"/><rect class="cls-78" x="271.96" y="248.71" width="5.65" height="5.35" rx="1.22" ry="1.22" transform="translate(526.17 -23.4) rotate(90)"/><rect class="cls-78" x="264.04" y="276.72" width="5.65" height="5.35" rx="1.22" ry="1.22" transform="translate(546.26 12.53) rotate(90)"/><rect class="cls-78" x="271.96" y="276.72" width="5.65" height="5.35" rx="1.22" ry="1.22" transform="translate(554.18 4.61) rotate(90)"/><rect class="cls-78" x="232.23" y="184.49" width="21.05" height="70.94" transform="translate(485.51 439.92) rotate(180)"/><polygon class="cls-114" points="213.35 255.43 234.38 255.43 234.38 183.24 213.35 172.42 213.35 255.43"/><polygon class="cls-42" points="233.33 172.42 255.42 185.38 235.45 185.38 213.35 172.42 233.33 172.42"/><rect class="cls-4" x="229.91" y="166.22" width="4.14" height="7.96"/><polygon class="cls-76" points="229.92 174.18 227.22 172.75 227.22 166.22 229.91 166.22 229.92 174.18"/><line class="cls-55" x1="235.45" y1="185.38" x2="213.35" y2="172.42"/><rect class="cls-105" x="245.03" y="209.48" width="5.65" height="5.35" rx="1.22" ry="1.22" transform="translate(460 -35.7) rotate(90)"/><rect class="cls-105" x="245.03" y="200.13" width="5.65" height="5.35" rx="1.22" ry="1.22" transform="translate(450.66 -45.04) rotate(90)"/><rect class="cls-105" x="245.03" y="190.79" width="5.65" height="5.35" rx="1.22" ry="1.22" transform="translate(441.32 -54.39) rotate(90)"/><rect class="cls-105" x="237.11" y="209.48" width="5.65" height="5.35" rx="1.22" ry="1.22" transform="translate(452.08 -27.78) rotate(90)"/><rect class="cls-105" x="237.11" y="200.13" width="5.65" height="5.35" rx="1.22" ry="1.22" transform="translate(442.74 -37.12) rotate(90)"/><rect class="cls-105" x="237.11" y="190.79" width="5.65" height="5.35" rx="1.22" ry="1.22" transform="translate(433.39 -46.46) rotate(90)"/><rect class="cls-105" x="245.03" y="237.51" width="5.65" height="5.35" rx="1.22" ry="1.22" transform="translate(488.03 -7.67) rotate(90)"/><rect class="cls-105" x="245.03" y="228.16" width="5.65" height="5.35" rx="1.22" ry="1.22" transform="translate(478.69 -17.01) rotate(90)"/><rect class="cls-105" x="245.03" y="218.82" width="5.65" height="5.35" rx="1.22" ry="1.22" transform="translate(469.35 -26.35) rotate(90)"/><rect class="cls-105" x="237.11" y="237.51" width="5.65" height="5.35" rx="1.22" ry="1.22" transform="translate(480.11 .25) rotate(90)"/><rect class="cls-105" x="237.11" y="228.16" width="5.65" height="5.35" rx="1.22" ry="1.22" transform="translate(470.77 -9.09) rotate(90)"/><rect class="cls-105" x="237.11" y="218.82" width="5.65" height="5.35" rx="1.22" ry="1.22" transform="translate(461.43 -18.43) rotate(90)"/><rect class="cls-105" x="245.03" y="246.83" width="5.65" height="5.35" rx="1.22" ry="1.22" transform="translate(497.36 1.66) rotate(90)"/><rect class="cls-105" x="237.11" y="246.83" width="5.65" height="5.35" rx="1.22" ry="1.22" transform="translate(489.44 9.58) rotate(90)"/><rect class="cls-78" x="224.73" y="209.48" width="5.65" height="5.35" rx="1.22" ry="1.22" transform="translate(439.71 -15.4) rotate(90)"/><rect class="cls-78" x="224.73" y="200.13" width="5.65" height="5.35" rx="1.22" ry="1.22" transform="translate(430.36 -24.75) rotate(90)"/><rect class="cls-78" x="224.73" y="190.79" width="5.65" height="5.35" rx="1.22" ry="1.22" transform="translate(421.02 -34.09) rotate(90)"/><rect class="cls-78" x="216.81" y="209.48" width="5.65" height="5.35" rx="1.22" ry="1.22" transform="translate(431.79 -7.48) rotate(90)"/><rect class="cls-78" x="216.81" y="200.13" width="5.65" height="5.35" rx="1.22" ry="1.22" transform="translate(422.44 -16.83) rotate(90)"/><rect class="cls-78" x="216.81" y="190.79" width="5.65" height="5.35" rx="1.22" ry="1.22" transform="translate(413.1 -26.17) rotate(90)"/><rect class="cls-78" x="216.81" y="181.45" width="5.65" height="5.35" rx="1.22" ry="1.22" transform="translate(403.76 -35.51) rotate(90)"/><rect class="cls-78" x="224.73" y="237.51" width="5.65" height="5.35" rx="1.22" ry="1.22" transform="translate(467.74 12.63) rotate(90)"/><rect class="cls-78" x="224.73" y="228.16" width="5.65" height="5.35" rx="1.22" ry="1.22" transform="translate(458.4 3.28) rotate(90)"/><rect class="cls-78" x="224.73" y="218.82" width="5.65" height="5.35" rx="1.22" ry="1.22" transform="translate(449.05 -6.06) rotate(90)"/><rect class="cls-78" x="216.81" y="237.51" width="5.65" height="5.35" rx="1.22" ry="1.22" transform="translate(459.82 20.55) rotate(90)"/><rect class="cls-78" x="216.81" y="228.16" width="5.65" height="5.35" rx="1.22" ry="1.22" transform="translate(450.47 11.21) rotate(90)"/><rect class="cls-78" x="216.81" y="218.82" width="5.65" height="5.35" rx="1.22" ry="1.22" transform="translate(441.13 1.86) rotate(90)"/><rect class="cls-78" x="224.73" y="246.83" width="5.65" height="5.35" rx="1.22" ry="1.22" transform="translate(477.06 21.95) rotate(90)"/><rect class="cls-78" x="216.81" y="246.83" width="5.65" height="5.35" rx="1.22" ry="1.22" transform="translate(469.14 29.87) rotate(90)"/><rect class="cls-116" x="41.48" y="252.14" width="49.69" height="49.04" transform="translate(132.65 553.32) rotate(-180)"/><rect class="cls-111" x="8.01" y="252.14" width="33.47" height="49.04"/><line class="cls-11" x1="41.48" y1="301.18" x2="91.17" y2="301.18"/><line class="cls-11" x1="41.48" y1="276.38" x2="91.17" y2="276.38"/><line class="cls-9" x1="8.01" y1="276.38" x2="41.48" y2="276.38"/><rect class="cls-102" x="26.98" y="258.35" width="8.28" height="10.35" rx="1.04" ry="1.04"/><rect class="cls-102" x="29.05" y="258.35" width="6.21" height="10.35" rx="1.04" ry="1.04"/><rect class="cls-102" x="51.44" y="257.74" width="8.28" height="10.35" rx="1.04" ry="1.04" transform="translate(111.17 525.83) rotate(180)"/><rect class="cls-102" x="51.44" y="257.74" width="6.21" height="10.35" rx="1.04" ry="1.04" transform="translate(109.1 525.83) rotate(180)"/><rect class="cls-102" x="67.81" y="257.74" width="8.28" height="10.35" rx="1.04" ry="1.04" transform="translate(143.91 525.83) rotate(-180)"/><rect class="cls-102" x="67.81" y="257.74" width="6.21" height="10.35" rx="1.04" ry="1.04" transform="translate(141.84 525.83) rotate(180)"/><rect class="cls-102" x="51.44" y="283.02" width="8.28" height="10.35" rx="1.04" ry="1.04" transform="translate(111.17 576.39) rotate(180)"/><rect class="cls-102" x="51.44" y="283.02" width="6.21" height="10.35" rx="1.04" ry="1.04" transform="translate(109.1 576.39) rotate(180)"/><rect class="cls-102" x="67.81" y="283.02" width="8.28" height="10.35" rx="1.04" ry="1.04" transform="translate(143.91 576.39) rotate(180)"/><rect class="cls-102" x="67.81" y="283.02" width="6.21" height="10.35" rx="1.04" ry="1.04" transform="translate(141.84 576.39) rotate(-180)"/><rect class="cls-102" x="12.49" y="258.35" width="8.28" height="10.35" rx="1.04" ry="1.04"/><rect class="cls-102" x="14.56" y="258.35" width="6.21" height="10.35" rx="1.04" ry="1.04"/><rect class="cls-102" x="12.49" y="283.64" width="8.28" height="10.35" rx="1.04" ry="1.04"/><rect class="cls-102" x="14.56" y="283.64" width="6.21" height="10.35" rx="1.04" ry="1.04"/><rect class="cls-102" x="26.98" y="283.64" width="8.28" height="10.35" rx="1.04" ry="1.04"/><rect class="cls-102" x="29.05" y="283.64" width="6.21" height="10.35" rx="1.04" ry="1.04"/><rect class="cls-116" x="41.48" y="202.65" width="49.69" height="49.04" transform="translate(132.65 454.34) rotate(-180)"/><rect class="cls-111" x="8.01" y="202.65" width="33.47" height="49.04"/><line class="cls-11" x1="41.48" y1="251.69" x2="91.17" y2="251.69"/><line class="cls-11" x1="41.48" y1="226.88" x2="91.17" y2="226.88"/><line class="cls-9" x1="8.01" y1="226.88" x2="41.48" y2="226.88"/><line class="cls-9" x1="8.01" y1="251.69" x2="41.48" y2="251.69"/><rect class="cls-102" x="26.98" y="208.86" width="8.28" height="10.35" rx="1.04" ry="1.04"/><rect class="cls-102" x="29.05" y="208.86" width="6.21" height="10.35" rx="1.04" ry="1.04"/><rect class="cls-102" x="51.44" y="208.24" width="8.28" height="10.35" rx="1.04" ry="1.04" transform="translate(111.17 426.84) rotate(180)"/><rect class="cls-102" x="51.44" y="208.24" width="6.21" height="10.35" rx="1.04" ry="1.04" transform="translate(109.1 426.84) rotate(180)"/><rect class="cls-102" x="67.81" y="208.24" width="8.28" height="10.35" rx="1.04" ry="1.04" transform="translate(143.91 426.84) rotate(180)"/><rect class="cls-102" x="67.81" y="208.24" width="6.21" height="10.35" rx="1.04" ry="1.04" transform="translate(141.84 426.84) rotate(180)"/><rect class="cls-102" x="51.44" y="233.52" width="8.28" height="10.35" rx="1.04" ry="1.04" transform="translate(111.17 477.4) rotate(180)"/><rect class="cls-102" x="51.44" y="233.52" width="6.21" height="10.35" rx="1.04" ry="1.04" transform="translate(109.1 477.4) rotate(180)"/><rect class="cls-102" x="67.81" y="233.52" width="8.28" height="10.35" rx="1.04" ry="1.04" transform="translate(143.91 477.4) rotate(180)"/><rect class="cls-102" x="67.81" y="233.52" width="6.21" height="10.35" rx="1.04" ry="1.04" transform="translate(141.84 477.4) rotate(180)"/><rect class="cls-102" x="12.49" y="208.86" width="8.28" height="10.35" rx="1.04" ry="1.04"/><rect class="cls-102" x="14.56" y="208.86" width="6.21" height="10.35" rx="1.04" ry="1.04"/><rect class="cls-102" x="12.49" y="234.14" width="8.28" height="10.35" rx="1.04" ry="1.04"/><rect class="cls-102" x="14.56" y="234.14" width="6.21" height="10.35" rx="1.04" ry="1.04"/><rect class="cls-102" x="26.98" y="234.14" width="8.28" height="10.35" rx="1.04" ry="1.04"/><rect class="cls-102" x="29.05" y="234.14" width="6.21" height="10.35" rx="1.04" ry="1.04"/><polygon class="cls-116" points="41.48 202.19 91.17 202.67 91.17 153.63 41.48 153.16 41.48 202.19"/><line class="cls-27" x1="41.79" y1="154.36" x2="89.67" y2="154.36"/><line class="cls-28" x1="36.88" y1="138.94" x2="36.88" y2="117.8"/><line class="cls-10" x1="45.64" y1="146.78" x2="45.64" y2="125.64"/><rect class="cls-111" x="8.01" y="153.16" width="33.47" height="49.04"/><line class="cls-26" x1="9.63" y1="154.36" x2="40.37" y2="154.36"/><line class="cls-11" x1="41.48" y1="202.19" x2="91.17" y2="202.19"/><line class="cls-11" x1="41.71" y1="177.33" x2="91.41" y2="177.33"/><line class="cls-9" x1="8.01" y1="177.39" x2="41.48" y2="177.39"/><line class="cls-9" x1="8.01" y1="202.19" x2="41.48" y2="202.19"/><polyline class="cls-111" points="82.89 134.15 41.48 134.15 41.48 150.72 91.17 150.72 82.89 134.15"/><polyline class="cls-111" points="82.89 134.15 41.48 134.15 41.48 150.72 91.17 150.72 82.89 134.15"/><polyline class="cls-59" points="82.89 134.15 41.48 134.15 41.48 150.72 91.17 150.72 82.89 134.15"/><polygon class="cls-32" points="8.01 150.72 18.36 134.15 41.48 134.15 41.48 150.72 8.01 150.72"/><rect class="cls-102" x="26.98" y="159.37" width="8.28" height="10.35" rx="1.04" ry="1.04"/><rect class="cls-102" x="29.05" y="159.37" width="6.21" height="10.35" rx="1.04" ry="1.04"/><rect class="cls-102" x="51.44" y="158.75" width="8.28" height="10.35" rx="1.04" ry="1.04" transform="translate(111.17 327.85) rotate(180)"/><rect class="cls-102" x="51.44" y="158.75" width="6.21" height="10.35" rx="1.04" ry="1.04" transform="translate(109.1 327.85) rotate(180)"/><rect class="cls-102" x="67.81" y="158.75" width="8.28" height="10.35" rx="1.04" ry="1.04" transform="translate(143.91 327.85) rotate(180)"/><rect class="cls-102" x="67.81" y="158.75" width="6.21" height="10.35" rx="1.04" ry="1.04" transform="translate(141.84 327.85) rotate(180)"/><rect class="cls-102" x="51.44" y="184.03" width="8.28" height="10.35" rx="1.04" ry="1.04" transform="translate(111.17 378.41) rotate(180)"/><rect class="cls-102" x="51.44" y="184.03" width="6.21" height="10.35" rx="1.04" ry="1.04" transform="translate(109.1 378.41) rotate(180)"/><rect class="cls-102" x="67.81" y="184.03" width="8.28" height="10.35" rx="1.04" ry="1.04" transform="translate(143.91 378.41) rotate(180)"/><rect class="cls-102" x="67.81" y="184.03" width="6.21" height="10.35" rx="1.04" ry="1.04" transform="translate(141.84 378.41) rotate(180)"/><rect class="cls-102" x="12.49" y="159.37" width="8.28" height="10.35" rx="1.04" ry="1.04"/><rect class="cls-102" x="14.56" y="159.37" width="6.21" height="10.35" rx="1.04" ry="1.04"/><rect class="cls-102" x="12.49" y="184.65" width="8.28" height="10.35" rx="1.04" ry="1.04"/><rect class="cls-102" x="14.56" y="184.65" width="6.21" height="10.35" rx="1.04" ry="1.04"/><rect class="cls-102" x="26.98" y="184.65" width="8.28" height="10.35" rx="1.04" ry="1.04"/><rect class="cls-102" x="29.05" y="184.65" width="6.21" height="10.35" rx="1.04" ry="1.04"/><rect class="cls-110" x="40.42" y="289.53" width="143.38" height="35.01" transform="translate(224.22 614.07) rotate(180)"/><polyline class="cls-86" points="166.71 254.25 123.41 254.25 123.41 289.48 185.17 289.48 166.71 254.25"/><line class="cls-6" x1="118.39" y1="252.77" x2="164.17" y2="252.86"/><rect class="cls-110" x="40.42" y="255.25" width="83.14" height="69.29" transform="translate(163.98 579.79) rotate(-180)"/><rect class="cls-74" x="125.47" y="298.91" width="10.16" height="17.32" rx="3.46" ry="3.46" transform="translate(261.11 615.14) rotate(180)"/><rect class="cls-74" x="144.02" y="298.91" width="10.16" height="17.32" rx="3.46" ry="3.46" transform="translate(298.2 615.14) rotate(180)"/><rect class="cls-73" x="163.03" y="298.91" width="10.16" height="17.32" rx="3.46" ry="3.46" transform="translate(336.23 615.14) rotate(180)"/><rect class="cls-101" x="2.7" y="255.35" width="37.72" height="289.78"/><rect class="cls-110" x="119.22" y="289.17" width="58.78" height="5.46" transform="translate(297.22 583.8) rotate(180)"/><polyline class="cls-86" points="109.7 224.68 86.93 219.5 12.99 223.33 1.63 255.25 123.56 255.25 109.7 224.68"/><polyline class="cls-87" points="12.99 223.33 1.63 255.25 43.14 255.25 36.32 223.27"/><path class="cls-110" d="m137.52,286.8c.34-5.76,5.12-10.32,10.97-10.32,5.85,0,10.62,4.56,10.97,10.32v7.83s-21.93-1.72-21.93-1.72v-6.11Z"/><line class="cls-13" x1="123.56" y1="255.25" x2="2.7" y2="255.25"/><path class="cls-110" d="m63.2,254.24c.68-11.35,10.09-20.34,21.61-20.34,11.52,0,20.93,8.99,21.61,20.34v7.55s-43.22,0-43.22,0v-7.55Z"/><path class="cls-2" d="m63.1,255.12c.7-11.81,10.35-21.18,22.16-21.18,11.81,0,21.47,9.36,22.16,21.18"/><line class="cls-56" x1="14.09" y1="221.88" x2="108.82" y2="222.18"/><path class="cls-49" d="m3.4,289.86h116.63s14.17,0,14.17,0c0,0,2.37-13.38,14.16-13.38,11.79,0,14.24,13.56,14.24,13.56h20.38"/><rect class="cls-73" x="107.75" y="298.91" width="10.16" height="17.32" rx="3.46" ry="3.46" transform="translate(225.66 615.14) rotate(180)"/><rect class="cls-74" x="88.22" y="298.91" width="10.16" height="17.32" rx="3.46" ry="3.46" transform="translate(186.6 615.14) rotate(180)"/><rect class="cls-74" x="69.35" y="298.91" width="10.16" height="17.32" rx="3.46" ry="3.46" transform="translate(148.87 615.14) rotate(180)"/><rect class="cls-73" x="105.47" y="264.22" width="10.16" height="17.32" rx="3.46" ry="3.46" transform="translate(221.11 545.76) rotate(180)"/><rect class="cls-74" x="86.94" y="264.22" width="10.16" height="17.32" rx="3.46" ry="3.46" transform="translate(184.05 545.76) rotate(180)"/><rect class="cls-73" x="68.42" y="264.22" width="10.16" height="17.32" rx="3.46" ry="3.46" transform="translate(146.99 545.76) rotate(180)"/><rect class="cls-73" x="49.89" y="264.22" width="10.16" height="17.32" rx="3.46" ry="3.46" transform="translate(109.93 545.76) rotate(180)"/><rect class="cls-74" x="49.89" y="298.37" width="10.16" height="17.32" rx="3.46" ry="3.46" transform="translate(109.93 614.07) rotate(180)"/><rect class="cls-90" x="143.8" y="283.82" width="9.61" height="9.31" rx="4.66" ry="4.66" transform="translate(49.7 597.54) rotate(-135)"/><rect class="cls-90" x="79.5" y="245.31" width="11.53" height="11.18" rx="5.59" ry="5.59" transform="translate(-31.86 488.61) rotate(-135)"/><path class="cls-80" d="m183.8,363.53c1.95,0,3.54-1.58,3.54-3.54s-1.58-3.54-3.54-3.54h0v-28.38h0c1.95,0,3.54-1.58,3.54-3.54s-1.58-3.54-3.54-3.54h0v-27.53c1.56-.37,2.72-1.77,2.72-3.44s-1.24-3.17-2.88-3.47l-16.48-31.45c.47-.63.76-1.4.76-2.25,0-2.07-1.67-3.75-3.74-3.76l-43.44-.08-10.78-23.79c1.24-.46,2.13-1.65,2.13-3.05,0-1.81-1.45-3.28-3.26-3.28l-94.73-.29h-.01c-1.8,0-3.27,1.46-3.27,3.26,0,1.23.67,2.3,1.68,2.87l-9.61,26.98h-.19c-1.95,0-3.54,1.58-3.54,3.54s1.58,3.54,3.54,3.54h0v27.6c-1.62.33-2.84,1.75-2.84,3.47s1.22,3.14,2.84,3.47v27.68h0c-1.95,0-3.54,1.58-3.54,3.54s1.58,3.54,3.54,3.54h0v28.38h0c-1.95,0-3.54,1.58-3.54,3.54s1.58,3.54,3.54,3.54h0v28.2h0c-1.95,0-3.54,1.58-3.54,3.54s1.58,3.54,3.54,3.54h0v28.2h0c-1.95,0-3.54,1.58-3.54,3.54s1.58,3.54,3.54,3.54h0v28.2h0c-1.95,0-3.54,1.58-3.54,3.54s1.58,3.54,3.54,3.54h0v28.2h0c-1.95,0-3.54,1.58-3.54,3.54s1.58,3.54,3.54,3.54h0v40.48h37.72v-40.48h143.38c1.95,0,3.54-1.58,3.54-3.54s-1.58-3.54-3.54-3.54h0v-28.2h0c1.95,0,3.54-1.58,3.54-3.54s-1.58-3.54-3.54-3.54h0v-28.2h0c1.95,0,3.54-1.58,3.54-3.54s-1.58-3.54-3.54-3.54h0v-28.2h0c1.95,0,3.54-1.58,3.54-3.54s-1.58-3.54-3.54-3.54h0v-28.2h0Z"/><rect class="cls-110" x="294.65" y="277.91" width="140.39" height="34.28" transform="translate(729.68 590.11) rotate(180)"/><rect class="cls-110" x="294.65" y="244.35" width="81.41" height="67.84" transform="translate(670.7 556.55) rotate(-180)"/><rect class="cls-101" x="257.71" y="244.44" width="36.93" height="283.74"/><polyline class="cls-86" points="362.49 214.41 340.19 209.35 267.79 213.09 256.66 244.35 376.05 244.35 362.49 214.41"/><polyline class="cls-87" points="267.79 213.09 256.66 244.35 297.31 244.35 290.63 213.04"/><line class="cls-19" x1="376.05" y1="244.35" x2="257.71" y2="244.35"/><line class="cls-54" x1="268.87" y1="211.68" x2="361.62" y2="211.97"/><path class="cls-53" d="m258.4,278.24h114.2s13.88,0,13.88,0c0,0,2.33-13.1,13.87-13.1,11.54,0,13.94,13.28,13.94,13.28h19.95"/><path class="cls-80" d="m435.04,350.37c1.91,0,3.46-1.55,3.46-3.46s-1.55-3.46-3.46-3.46h0v-27.79h0c1.91,0,3.46-1.55,3.46-3.46s-1.55-3.46-3.46-3.46h0v-26.95c1.53-.36,2.66-1.73,2.66-3.37s-1.21-3.1-2.82-3.4l-16.13-30.79c.46-.61.74-1.37.74-2.2,0-2.03-1.64-3.68-3.67-3.68l-42.53-.08-10.55-23.29c1.22-.45,2.08-1.62,2.09-2.99,0-1.77-1.42-3.21-3.19-3.21l-92.76-.29h-.01c-1.76,0-3.2,1.43-3.2,3.19,0,1.2.66,2.26,1.64,2.81l-9.41,26.41h-.19c-1.91,0-3.46,1.55-3.46,3.46s1.55,3.46,3.46,3.46h0v27.02c-1.58.32-2.78,1.72-2.78,3.4s1.19,3.08,2.78,3.4v27.1h0c-1.91,0-3.46,1.55-3.46,3.46s1.55,3.46,3.46,3.46h0v27.79h0c-1.91,0-3.46,1.55-3.46,3.46s1.55,3.46,3.46,3.46h0v27.61h0c-1.91,0-3.46,1.55-3.46,3.46s1.55,3.46,3.46,3.46h0v27.61h0c-1.91,0-3.46,1.55-3.46,3.46s1.55,3.46,3.46,3.46h0v27.61h0c-1.91,0-3.46,1.55-3.46,3.46s1.55,3.46,3.46,3.46h0v27.61h0c-1.91,0-3.46,1.55-3.46,3.46s1.55,3.46,3.46,3.46h0v39.64h36.93v-39.64h140.39c1.91,0,3.46-1.55,3.46-3.46s-1.55-3.46-3.46-3.46h0v-27.61h0c1.91,0,3.46-1.55,3.46-3.46s-1.55-3.46-3.46-3.46h0v-27.61h0c1.91,0,3.46-1.55,3.46-3.46s-1.55-3.46-3.46-3.46h0v-27.61h0c1.91,0,3.46-1.55,3.46-3.46s-1.55-3.46-3.46-3.46h0v-27.61h0Z"/><polygon class="cls-82" points="172.06 327.98 245.72 328.69 245.72 256 172.06 255.29 172.06 327.98"/><line class="cls-69" x1="172.53" y1="257.08" x2="243.49" y2="257.08"/><rect class="cls-85" x="122.45" y="255.29" width="49.61" height="72.69"/><line class="cls-58" x1="124.86" y1="257.08" x2="170.42" y2="257.08"/><line class="cls-63" x1="172.41" y1="291.13" x2="246.07" y2="291.13"/><line class="cls-62" x1="122.45" y1="291.22" x2="172.06" y2="291.22"/><polyline class="cls-89" points="233.44 230.74 172.06 230.74 172.06 255.29 245.72 255.29 233.44 230.74"/><polyline class="cls-104" points="233.44 230.74 172.06 230.74 172.06 255.29 245.72 255.29 233.44 230.74"/><line class="cls-46" x1="245.72" y1="253.62" x2="172.06" y2="253.62"/><polygon class="cls-100" points="122.45 255.29 137.8 230.74 172.06 230.74 172.06 255.29 122.45 255.29"/><line class="cls-57" x1="122.45" y1="253.62" x2="172.06" y2="253.62"/><line class="cls-46" x1="172.06" y1="229.69" x2="233.44" y2="229.69"/><line class="cls-57" x1="137.8" y1="229.69" x2="172.06" y2="229.69"/><rect class="cls-83" x="150.58" y="264.5" width="12.28" height="15.35" rx="1.55" ry="1.55"/><rect class="cls-104" x="153.65" y="264.5" width="9.21" height="15.35" rx="1.55" ry="1.55"/><rect class="cls-84" x="186.83" y="263.59" width="12.28" height="15.35" rx="1.55" ry="1.55" transform="translate(385.94 542.52) rotate(180)"/><rect class="cls-88" x="186.83" y="263.59" width="9.21" height="15.35" rx="1.55" ry="1.55" transform="translate(382.87 542.52) rotate(180)"/><rect class="cls-84" x="211.1" y="263.59" width="12.28" height="15.35" rx="1.55" ry="1.55" transform="translate(434.47 542.52) rotate(180)"/><rect class="cls-88" x="211.1" y="263.59" width="9.21" height="15.35" rx="1.55" ry="1.55" transform="translate(431.4 542.52) rotate(180)"/><rect class="cls-83" x="129.09" y="264.5" width="12.28" height="15.35" rx="1.55" ry="1.55"/><rect class="cls-104" x="132.16" y="264.5" width="9.21" height="15.35" rx="1.55" ry="1.55"/><path class="cls-80" d="m246.07,287.9h-.35v-28.96c.42-.5.67-1.15.67-1.86,0-.25-.03-.49-.09-.72,1.27-.27,2.23-1.4,2.23-2.75,0-1.55-1.26-2.81-2.81-2.81h-2.24l-9.21-18.42c1.15-.35,1.99-1.42,1.99-2.69,0-1.55-1.26-2.81-2.81-2.81h-60.69c-.22-.06-.46-.09-.7-.09h-34.26c-1.6,0-2.9,1.3-2.9,2.9,0,1.24.77,2.29,1.86,2.7l-11.45,18.32h-2.86c-1.6,0-2.9,1.3-2.9,2.9,0,1.45,1.07,2.65,2.47,2.86-.04.2-.06.4-.06.61,0,.6.18,1.16.5,1.62v29.28h0c-1.78,0-3.23,1.45-3.23,3.23s1.45,3.23,3.23,3.23h0v30.31h0c-1.78,0-3.23,1.45-3.23,3.23s1.45,3.23,3.23,3.23h0v30.14h0c-1.78,0-3.23,1.45-3.23,3.23s1.45,3.23,3.23,3.23h0v30.31h0c-1.78,0-3.23,1.45-3.23,3.23s1.45,3.23,3.23,3.23h0v30.14h0c-1.78,0-3.23,1.45-3.23,3.23s1.45,3.23,3.23,3.23h0v30.31h0c-1.78,0-3.23,1.45-3.23,3.23s1.45,3.23,3.23,3.23h123.27c1.78,0,3.23-1.45,3.23-3.23s-1.45-3.23-3.23-3.23v-30.31c1.78,0,3.23-1.45,3.23-3.23s-1.45-3.23-3.23-3.23v-30.14c1.78,0,3.23-1.45,3.23-3.23s-1.45-3.23-3.23-3.23v-30.31c1.78,0,3.23-1.45,3.23-3.23s-1.45-3.23-3.23-3.23v-30.14c1.78,0,3.23-1.45,3.23-3.23s-1.45-3.23-3.23-3.23v-30.4h.35c1.78,0,3.23-1.45,3.23-3.23s-1.45-3.23-3.23-3.23Z"/><path class="cls-132" d="m29.34,296.43c5.05,0,7.89,5.8,4.8,9.8-7.47,9.66-19.17,15.89-32.33,15.89-13.16,0-24.86-6.23-32.33-15.89-3.09-4-.26-9.8,4.8-9.8H29.34Z"/><path class="cls-132" d="m-81.77,333.09c-7.67,0-11.97-8.81-7.28-14.88,11.34-14.67,29.1-24.12,49.07-24.12,19.97,0,37.73,9.45,49.07,24.12,4.69,6.07.39,14.88-7.28,14.88h-83.58Z"/><path class="cls-132" d="m-25.84,327.41c-7.3,0-11.4-8.39-6.93-14.16,10.79-13.96,27.7-22.96,46.72-22.96,19.02,0,35.92,9,46.72,22.96,4.46,5.78.37,14.16-6.93,14.16H-25.84Z"/><path class="cls-132" d="m-25.84,320.17c-7.3,0-11.4-8.39-6.93-14.16,10.79-13.96,27.7-22.96,46.72-22.96s35.92,9,46.72,22.96c4.46,5.78.37,14.16-6.93,14.16H-25.84Z"/><path class="cls-113" d="m-13.24,302.83c-5.94,0-9.27-6.82-5.64-11.52,8.78-11.36,22.52-18.67,37.99-18.67,15.46,0,29.21,7.31,37.99,18.67,3.63,4.7.3,11.52-5.64,11.52H-13.24Z"/><path class="cls-96" d="m-38.02,304.22c-5.89,0-9.2-6.77-5.6-11.44,8.72-11.28,22.37-18.54,37.72-18.54,15.35,0,29.01,7.26,37.72,18.54,3.61,4.66.3,11.44-5.6,11.44H-38.02Z"/><path class="cls-96" d="m10.26,317.2c-5.09,0-7.95-5.85-4.84-9.88,7.53-9.74,19.33-16.02,32.59-16.02,13.27,0,25.06,6.28,32.59,16.02,3.11,4.03.26,9.88-4.84,9.88H10.26Z"/><path class="cls-113" d="m33.82,305.31c-1.74,0-2.72-2-1.66-3.38,2.58-3.34,6.62-5.48,11.16-5.48,4.54,0,8.58,2.15,11.16,5.48,1.07,1.38.09,3.38-1.66,3.38h-19.01Z"/><rect class="cls-94" x="264.39" y="212.09" width="10.68" height="162.67" rx="2.54" ry="2.54" transform="translate(563.15 23.69) rotate(90)"/><rect class="cls-41" x="188.34" y="285.88" width="162.98" height="7.41"/><polygon class="cls-107" points="182.76 282.47 226.6 211.59 402.26 211.59 358.43 282.47 182.76 282.47"/><line class="cls-60" x1="402.26" y1="211.59" x2="226.6" y2="211.59"/><line class="cls-60" x1="300.93" y1="243.43" x2="293.81" y2="243.43"/><line class="cls-60" x1="282.59" y1="251.13" x2="275.46" y2="251.13"/><line class="cls-60" x1="232.75" y1="251.13" x2="225.63" y2="251.13"/><line class="cls-52" x1="246.42" y1="263.94" x2="239.3" y2="263.94"/><line class="cls-52" x1="215.31" y1="260.66" x2="208.18" y2="260.66"/><line class="cls-52" x1="270.19" y1="225.41" x2="263.06" y2="225.41"/><line class="cls-60" x1="247.59" y1="233.11" x2="240.46" y2="233.11"/><line class="cls-52" x1="296.02" y1="269.59" x2="288.89" y2="269.59"/><rect class="cls-99" x="183.73" y="274.03" width="4.28" height="8.94"/><rect class="cls-99" x="199.78" y="274.03" width="4.28" height="8.94"/><rect class="cls-99" x="215.84" y="274.03" width="4.28" height="8.94"/><rect class="cls-99" x="231.89" y="274.03" width="4.28" height="8.94"/><rect class="cls-99" x="247.94" y="274.03" width="4.28" height="8.94"/><rect class="cls-99" x="263.99" y="274.03" width="4.28" height="8.94"/><rect class="cls-99" x="280.04" y="274.03" width="4.28" height="8.94"/><rect class="cls-99" x="296.1" y="274.03" width="4.28" height="8.94"/><rect class="cls-107" x="280.98" y="191.08" width="3.21" height="8.94"/><rect class="cls-107" x="291.23" y="191.08" width="3.21" height="8.94"/><rect class="cls-107" x="297.37" y="186.16" width="3.21" height="13.85"/><rect class="cls-92" x="180.36" y="270.82" width="170.96" height="4.28" rx="2.14" ry="2.14"/><rect class="cls-92" x="178.87" y="279.88" width="182.16" height="5.2" rx="2.6" ry="2.6"/><path class="cls-112" d="m295.63,195.94h-15.52c-.82,0-1.49.67-1.49,1.49v36.9h16.02l1-38.39Z"/><path class="cls-108" d="m282.55,215.14h-3.94v5.22h3.94c.77,0,1.39-.62,1.39-1.39v-2.43c0-.77-.62-1.39-1.39-1.39Z"/><rect class="cls-108" x="283.73" y="199.26" width="5.22" height="8.32" rx="1.39" ry="1.39" transform="translate(489.76 -82.92) rotate(90)"/><path class="cls-94" d="m300.25,195.94h-4.9c-.82,0-1.49.67-1.49,1.49v36.9l7.88-10.85v-26.05c0-.82-.67-1.49-1.49-1.49Z"/><line class="cls-18" x1="294.89" y1="234.33" x2="301.05" y2="224.18"/><line class="cls-17" x1="294.89" y1="234.33" x2="277.79" y2="234.33"/><polygon class="cls-5" points="279.73 190.48 284.37 186.51 299.58 186.51 294.94 190.48 279.73 190.48"/><path class="cls-127" d="m197.56,152.3c2.34,0,3.65-2.69,2.22-4.54-3.46-4.47-8.87-7.35-14.96-7.35s-11.5,2.88-14.96,7.35c-1.43,1.85-.12,4.54,2.22,4.54h25.48Z"/><path class="cls-127" d="m165.34,150.94c-3.13,0-4.88,3.59-2.97,6.06,4.62,5.98,11.86,9.83,20,9.83,8.14,0,15.38-3.85,20-9.83,1.91-2.47.16-6.06-2.97-6.06h-34.07Z"/><path class="cls-97" d="m216.18,157.14c2.18,0,3.4-2.5,2.07-4.22-3.22-4.17-8.26-6.85-13.94-6.85s-10.72,2.68-13.94,6.85c-1.33,1.72-.11,4.22,2.07,4.22h23.74Z"/><path class="cls-127" d="m175.53,130.16c0-4.37,3.55-7.92,7.92-7.92,4.37,0,7.92,3.55,7.92,7.92,0,4.37-3.55,7.92-7.92,7.92-4.37,0-7.92-3.55-7.92-7.92Z"/><path class="cls-127" d="m200.48,125.92c0-5.03,4.08-9.12,9.12-9.12,5.03,0,9.11,4.08,9.11,9.12s-4.08,9.12-9.11,9.12c-5.03,0-9.12-4.08-9.12-9.12Z"/><path class="cls-127" d="m188.33,125.92c0-5.03,4.08-9.12,9.12-9.12,5.03,0,9.11,4.08,9.11,9.12,0,5.03-4.08,9.12-9.11,9.12-5.03,0-9.12-4.08-9.12-9.12Z"/><circle class="cls-131" cx="213.65" cy="138.08" r="9.11" transform="translate(-5.55 9) rotate(-2.38)"/><path class="cls-131" d="m180.31,138.08c0-5.03,4.08-9.12,9.11-9.12,5.03,0,9.12,4.08,9.12,9.12,0,5.03-4.08,9.12-9.12,9.12-5.03,0-9.11-4.08-9.11-9.12Z"/><rect class="cls-127" x="191.37" y="125.92" width="30.38" height="12.15"/><path class="cls-127" d="m215.68,132c0-3.36,2.72-6.08,6.08-6.08,3.36,0,6.08,2.72,6.08,6.08,0,3.36-2.72,6.08-6.08,6.08-3.36,0-6.08-2.72-6.08-6.08Z"/><polygon class="cls-131" points="189.42 138.08 209.6 138.08 213.65 147.19 189.42 147.19 189.42 138.08"/><path class="cls-25" d="m194.2,149.35l-5.98-5.98c-.77-.77-1.2-1.8-1.2-2.89v-1.4c0-1.08.43-2.12,1.2-2.89l3.59-3.59"/><path class="cls-127" d="m185.85,132c0-3.36,2.72-6.08,6.08-6.08,3.36,0,6.08,2.72,6.08,6.08s-2.72,6.08-6.08,6.08-6.08-2.72-6.08-6.08Z"/><rect class="cls-127" x="197.45" y="116.81" width="12.15" height="9.12"/><path class="cls-25" d="m218.13,132.84l-4.78,4.78-3.59,3.59c-.77.77-1.8,1.2-2.89,1.2h-3.79c-1.08,0-2.12.43-2.89,1.2h0s-8.96,8.96-8.96,8.96c-2.69,2.69-6.33,4.19-10.13,4.19"/><path class="cls-25" d="m206.23,124.9v1.98c0,2.18.86,4.27,2.4,5.8l4.31,4.31"/><path class="cls-124" d="m213.87,120.58l4.35-16.44c.17-.66-.22-1.33-.88-1.51-.66-.17-1.33.22-1.51.88l-4.51,17.07h2.55Z"/><path class="cls-12" d="m218.51,105.97c-.17.86.46,1.68,1.34,1.73,6.73.37,10.25-4.56,15.85-.84-5.41-3.6-10.43.21-15.15-1.93-.86-.39-1.85.12-2.04,1.04h0Z"/><path class="cls-113" d="m219.69,122.93c1.89,0,2.95-2.17,1.8-3.67-2.8-3.62-7.18-5.95-12.11-5.95s-9.31,2.33-12.11,5.95c-1.16,1.5-.1,3.67,1.8,3.67h20.63Z"/><path class="cls-29" d="m220.47,118.97c-2.47-3.2-6.34-5.26-10.69-5.26"/><line class="cls-37" x1="148.15" y1="97.74" x2="148.15" y2="67"/><path class="cls-120" d="m148.9,100.35h0c24.64,0,44.61,19.97,44.61,44.61v205.19h-89.22v-205.19c0-24.64,19.97-44.61,44.61-44.61Z"/><line class="cls-23" x1="175.59" y1="230.07" x2="175.59" y2="236.3"/><line class="cls-23" x1="144.99" y1="163.24" x2="144.99" y2="169.47"/><line class="cls-23" x1="183.73" y1="163.24" x2="183.73" y2="166.36"/><line class="cls-23" x1="182.18" y1="198.23" x2="182.18" y2="206.58"/><line class="cls-23" x1="150.04" y1="205.29" x2="150.04" y2="220.34"/><path class="cls-39" d="m125.89,150.95c6.99,3.65,15.32,3.65,22.31,0"/><path class="cls-39" d="m170.51,150.95c6.05,3.15,13.1,3.58,19.42,1.28"/><line class="cls-20" x1="191.83" y1="148.73" x2="191.83" y2="314.4"/><path class="cls-39" d="m148.2,150.95c6.99,3.65,15.32,3.65,22.31,0"/><rect class="cls-126" x="104.28" y="144.96" width="32.76" height="205.19"/><line class="cls-22" x1="122.87" y1="187.57" x2="122.87" y2="202.58"/><line class="cls-22" x1="114.94" y1="164.84" x2="114.94" y2="175.35"/><circle class="cls-119" cx="166.11" cy="178.75" r="15.51"/><path class="cls-117" d="m166.11,163.24c-1.16,0-2.28.14-3.36.38,0,.12.01.24.01.37,6.26,1.99,10.81,7.84,10.81,14.77s-4.38,12.57-10.47,14.66c-.03.18-.07.35-.12.52,1.01.21,2.06.32,3.14.32,8.56,0,15.51-6.94,15.51-15.51s-6.94-15.51-15.51-15.51Z"/><circle class="cls-125" cx="166.13" cy="208.56" r="5.99"/><path class="cls-93" d="m162.14,204.57h45.27c2.2,0,3.99,1.79,3.99,3.99h0c0,2.2-1.79,3.99-3.99,3.99h-45.27v-7.98h0Z" transform="translate(373.55 417.13) rotate(-180)"/><circle class="cls-106" cx="211.41" cy="208.56" r="3.99"/><path class="cls-98" d="m148.85,97.95h0c-25.89,0-46.88,20.99-46.88,46.88h93.75c0-25.89-20.99-46.88-46.88-46.88Z"/><line class="cls-68" x1="150.88" y1="136.44" x2="170.94" y2="123.87"/><path class="cls-95" d="m148.59,97.95c-25.77.14-46.62,21.07-46.62,46.87h46.62v-46.87Z"/><path class="cls-14" d="m195.73,144.82c0-25.89-20.99-46.88-46.88-46.88"/><path class="cls-15" d="m148.85,97.95c-25.89,0-46.88,20.99-46.88,46.88"/><path class="cls-15" d="m125.41,144.82c7.34,3.83,16.1,3.83,23.44,0"/><path class="cls-15" d="m148.85,97.95c-12.94,0-23.44,20.99-23.44,46.88"/><line class="cls-15" x1="148.85" y1="144.82" x2="148.85" y2="97.95"/><path class="cls-14" d="m172.29,144.82c7.34,3.83,16.1,3.83,23.44,0"/><path class="cls-14" d="m148.85,144.82c7.34,3.83,16.1,3.83,23.44,0"/><path class="cls-15" d="m101.97,144.82c7.34,3.83,16.1,3.83,23.44,0"/><path class="cls-47" d="m158.48,109.61s13.13,3.35,18.94,14.65"/><path class="cls-24" d="m197.67,143.97c0-24.71-18.68-45.05-42.68-47.68"/><line class="cls-44" x1="163.38" y1="165.12" x2="163.38" y2="192.5"/><line class="cls-44" x1="174.56" y1="179.01" x2="151.56" y2="179.01"/><path class="cls-129" d="m11.98,180.34c0,8.73-6.8,15.8-15.19,15.8-8.39,0-15.19-7.07-15.19-15.8,0-8.73,6.8-15.8,15.19-15.8,8.39,0,15.19,7.07,15.19,15.8Z"/><path class="cls-129" d="m42.35,180.34c0,8.73-6.8,15.8-15.19,15.8-8.39,0-15.19-7.07-15.19-15.8,0-8.73,6.8-15.8,15.19-15.8,8.39,0,15.19,7.07,15.19,15.8Z"/><rect class="cls-129" x="-3.21" y="164.54" width="30.37" height="15.8"/><path class="cls-129" d="m36.32,192.72c0,5.82-4.53,10.53-10.12,10.53-5.59,0-10.12-4.72-10.12-10.53,0-5.82,4.53-10.53,10.12-10.53,5.59,0,10.12,4.72,10.12,10.53Z"/><path class="cls-130" d="m52.94,200.82c0,8.73-6.8,15.8-15.19,15.8-8.39,0-15.19-7.07-15.19-15.8,0-8.73,6.8-15.8,15.19-15.8,8.39,0,15.19,7.07,15.19,15.8Z"/><path class="cls-130" d="m42.45,203.27c0,10.92-8.51,19.78-19.01,19.78-10.5,0-19.01-8.85-19.01-19.78,0-10.92,8.51-19.78,19.01-19.78,10.5,0,19.01,8.86,19.01,19.78Z"/><path class="cls-129" d="m59.66,185.7c1.75,8.54-3.49,16.93-11.69,18.74-8.2,1.82-16.27-3.63-18.01-12.17-1.75-8.54,3.49-16.93,11.69-18.74s16.27,3.63,18.01,12.17Z"/><path class="cls-40" d="m41.84,174.48c7.7-1.7,15.27,3.41,16.91,11.42"/><ellipse class="cls-130" cx="-3.21" cy="201.41" rx="15.19" ry="15.8"/><ellipse class="cls-130" cx="17.04" cy="201.41" rx="15.19" ry="15.8"/><rect class="cls-129" x="-23.46" y="180.34" width="50.62" height="21.07"/><rect class="cls-130" x="-3.21" y="201.41" width="20.25" height="15.8"/><polygon class="cls-130" points="29.03 193.72 -11.06 193.72 -18.4 201.41 29.03 208.81 29.03 193.72"/><path class="cls-21" d="m11.73,236.37v-5.36c0-2.41.92-4.72,2.56-6.42l14.17-14.74c1.64-1.7,2.56-4.01,2.56-6.42v-5.02c0-2.41.92-4.72,2.56-6.42l.8-.83"/><polyline class="cls-21" points="21.38 217.21 11.73 207.18 -1.68 193.23"/><path class="cls-21" d="m10.55,191.88l-1.78,1.85c-2.76,2.87-2.76,7.52,0,10.39h0"/><path class="cls-21" d="m11.73,227.25l-9.5-9.88c-1.64-1.7-2.56-4.01-2.56-6.42H-.32c0-2.41-.92-4.72-2.56-6.42l-3.47-3.61"/><ellipse class="cls-129" cx="27.16" cy="191.44" rx="9.64" ry="10.03"/><rect class="cls-129" x="-23.46" y="180.34" width="50.62" height="13.37"/><path class="cls-66" d="m41.15,180.78c0-8.21-6.4-14.86-14.29-14.86H-1.82"/><path class="cls-128" d="m7.18,202.84c0,7.31-5.7,13.24-12.73,13.24-7.03,0-12.73-5.93-12.73-13.24,0-7.31,5.7-13.24,12.73-13.24,7.03,0,12.73,5.93,12.73,13.24Z"/><path class="cls-128" d="m2.13,213.21c0,4.88-3.8,8.83-8.48,8.83s-8.48-3.95-8.48-8.83c0-4.88,3.8-8.83,8.48-8.83s8.48,3.95,8.48,8.83Z"/><path class="cls-103" d="m16.06,220c0,7.31-5.7,13.24-12.73,13.24-7.03,0-12.73-5.93-12.73-13.24,0-7.31,5.7-13.24,12.73-13.24,7.03,0,12.73,5.93,12.73,13.24Z"/><path class="cls-103" d="m7.26,222.05c0,9.15-7.13,16.58-15.93,16.58-8.8,0-15.93-7.42-15.93-16.58,0-9.15,7.13-16.58,15.93-16.58,8.8,0,15.93,7.42,15.93,16.58Z"/><path class="cls-128" d="m21.69,207.33c1.46,7.15-2.93,14.19-9.8,15.71-6.88,1.52-13.63-3.04-15.1-10.2-1.46-7.15,2.93-14.19,9.8-15.71,6.88-1.52,13.63,3.04,15.1,10.2Z"/><path class="cls-45" d="m6.75,197.92c6.46-1.43,12.8,2.86,14.17,9.58"/><path class="cls-36" d="m.49,211.9l-.67.69c-1.37,1.43-2.14,3.36-2.14,5.38v4.2c0,2.02-.77,3.96-2.14,5.38l-11.88,12.36c-1.37,1.43-2.14,3.36-2.14,5.38v48.68s-22.51,25.12-22.51,25.12"/><ellipse class="cls-128" cx="-5.55" cy="212.13" rx="8.08" ry="8.41"/><path class="cls-43" d="m6.17,203.2c0-6.88-5.36-12.46-11.97-12.46h-24.04"/><path class="cls-128" d="m50.38,205.62c0,7.31-5.7,13.24-12.73,13.24-7.03,0-12.73-5.93-12.73-13.24,0-7.31,5.7-13.24,12.73-13.24,7.03,0,12.73,5.93,12.73,13.24Z"/><path class="cls-128" d="m75.83,205.62c0,7.31-5.7,13.24-12.73,13.24-7.03,0-12.73-5.93-12.73-13.24,0-7.31,5.7-13.24,12.73-13.24,7.03,0,12.73,5.93,12.73,13.24Z"/><rect class="cls-128" x="37.65" y="192.38" width="25.45" height="13.24"/><path class="cls-128" d="m29.17,214.45c0,4.88-3.8,8.83-8.48,8.83s-8.48-3.95-8.48-8.83c0-4.88,3.8-8.83,8.48-8.83,4.69,0,8.48,3.95,8.48,8.83Z"/><path class="cls-128" d="m70.78,216c0,4.88-3.8,8.83-8.48,8.83-4.69,0-8.48-3.95-8.48-8.83,0-4.88,3.8-8.83,8.48-8.83s8.48,3.95,8.48,8.83Z"/><path class="cls-103" d="m84.71,222.78c0,7.31-5.7,13.24-12.73,13.24-7.03,0-12.73-5.93-12.73-13.24,0-7.31,5.7-13.24,12.73-13.24,7.03,0,12.73,5.93,12.73,13.24Z"/><path class="cls-103" d="m75.92,224.84c0,9.15-7.13,16.58-15.93,16.58s-15.93-7.42-15.93-16.58,7.13-16.58,15.93-16.58c8.8,0,15.93,7.42,15.93,16.58Z"/><path class="cls-128" d="m90.34,210.11c1.46,7.15-2.93,14.19-9.8,15.71-6.88,1.52-13.63-3.04-15.1-10.2-1.46-7.15,2.93-14.19,9.8-15.71,6.88-1.52,13.63,3.04,15.1,10.2Z"/><path class="cls-45" d="m75.41,200.7c6.46-1.43,12.8,2.86,14.17,9.58"/><ellipse class="cls-103" cx="37.65" cy="223.28" rx="12.73" ry="13.24"/><ellipse class="cls-103" cx="54.62" cy="223.28" rx="12.73" ry="13.24"/><rect class="cls-128" x="20.68" y="205.62" width="42.42" height="17.66"/><rect class="cls-103" x="37.65" y="223.28" width="16.97" height="13.24"/><polygon class="cls-103" points="64.67 216.83 31.07 216.83 24.92 223.28 64.67 229.48 64.67 216.83"/><path class="cls-36" d="m69.15,214.68l-.67.69c-1.37,1.43-2.14,3.36-2.14,5.38v4.2c0,2.02-.77,3.96-2.14,5.38l-11.88,12.36c-1.37,1.43-2.14,3.36-2.14,5.38v48.68s-22.51,25.12-22.51,25.12"/><polyline class="cls-36" points="58.26 236.52 50.18 228.12 38.94 216.42"/><path class="cls-36" d="m49.19,215.29l-1.49,1.55c-2.31,2.4-2.31,6.3,0,8.71h0"/><path class="cls-36" d="m50.18,244.93l-7.96-8.28c-1.37-1.43-2.14-3.36-2.14-5.38h0c0-2.02-.77-3.96-2.14-5.38l-2.91-3.03"/><ellipse class="cls-128" cx="63.11" cy="214.92" rx="8.08" ry="8.41"/><rect class="cls-128" x="20.68" y="205.62" width="42.42" height="11.21"/><path class="cls-43" d="m74.83,205.99c0-6.88-5.36-12.46-11.97-12.46h-24.04"/><path class="cls-132" d="m202.84,259.62c2.47,0,3.85,2.83,2.34,4.78-3.64,4.72-9.35,7.75-15.77,7.75-6.42,0-12.13-3.04-15.77-7.75-1.51-1.95-.12-4.78,2.34-4.78h26.87Z"/><path class="cls-132" d="m148.63,277.51c-3.74,0-5.84-4.3-3.55-7.26,5.53-7.16,14.2-11.77,23.94-11.77,9.75,0,18.41,4.61,23.94,11.77,2.29,2.96.19,7.26-3.55,7.26h-40.78Z"/><path class="cls-132" d="m175.92,274.73c-3.56,0-5.56-4.09-3.38-6.91,5.27-6.81,13.52-11.2,22.79-11.2,9.28,0,17.53,4.39,22.79,11.2,2.18,2.82.18,6.91-3.38,6.91h-38.82Z"/><path class="cls-132" d="m175.92,271.2c-3.56,0-5.56-4.09-3.38-6.91,5.27-6.81,13.52-11.2,22.79-11.2,9.28,0,17.53,4.39,22.79,11.2,2.18,2.82.18,6.91-3.38,6.91h-38.82Z"/><path class="cls-113" d="m182.06,262.75c-2.9,0-4.52-3.33-2.75-5.62,4.28-5.54,10.99-9.11,18.53-9.11,7.54,0,14.25,3.57,18.53,9.11,1.77,2.29.15,5.62-2.75,5.62h-31.57Z"/><path class="cls-96" d="m169.97,263.42c-2.88,0-4.49-3.3-2.73-5.58,4.25-5.5,10.91-9.04,18.4-9.04,7.49,0,14.15,3.54,18.4,9.04,1.76,2.28.15,5.58-2.73,5.58h-31.35Z"/><path class="cls-96" d="m193.53,269.75c-2.48,0-3.88-2.85-2.36-4.82,3.67-4.75,9.43-7.81,15.9-7.81,6.47,0,12.23,3.06,15.9,7.81,1.52,1.97.13,4.82-2.36,4.82h-27.08Z"/><path class="cls-113" d="m205.03,263.95c-.85,0-1.33-.98-.81-1.65,1.26-1.63,3.23-2.68,5.44-2.68,2.22,0,4.19,1.05,5.44,2.68.52.67.04,1.65-.81,1.65h-9.27Z"/><path class="cls-132" d="m195.64,277.26c2.47,0,3.85,2.83,2.34,4.78-3.64,4.72-9.35,7.75-15.77,7.75-6.42,0-12.13-3.04-15.77-7.75-1.51-1.95-.12-4.78,2.34-4.78h26.87Z"/><path class="cls-132" d="m141.43,295.15c-3.74,0-5.84-4.3-3.55-7.26,5.53-7.16,14.2-11.77,23.94-11.77,9.75,0,18.41,4.61,23.94,11.77,2.29,2.96.19,7.26-3.55,7.26h-40.78Z"/><path class="cls-132" d="m168.72,292.38c-3.56,0-5.56-4.09-3.38-6.91,5.27-6.81,13.52-11.2,22.79-11.2,9.28,0,17.53,4.39,22.79,11.2,2.18,2.82.18,6.91-3.38,6.91h-38.82Z"/><path class="cls-132" d="m168.72,288.84c-3.56,0-5.56-4.09-3.38-6.91,5.27-6.81,13.52-11.2,22.79-11.2,9.28,0,17.53,4.39,22.79,11.2,2.18,2.82.18,6.91-3.38,6.91h-38.82Z"/><path class="cls-113" d="m174.86,280.39c-2.9,0-4.52-3.33-2.75-5.62,4.28-5.54,10.99-9.11,18.53-9.11,7.54,0,14.25,3.57,18.53,9.11,1.77,2.29.15,5.62-2.75,5.62h-31.57Z"/><path class="cls-96" d="m162.77,281.06c-2.88,0-4.49-3.3-2.73-5.58,4.25-5.5,10.91-9.04,18.4-9.04,7.49,0,14.15,3.54,18.4,9.04,1.76,2.28.15,5.58-2.73,5.58h-31.35Z"/><path class="cls-96" d="m186.33,287.4c-2.48,0-3.88-2.85-2.36-4.82,3.67-4.75,9.43-7.81,15.9-7.81,6.47,0,12.23,3.06,15.9,7.81,1.52,1.97.13,4.82-2.36,4.82h-27.08Z"/><path class="cls-113" d="m197.82,281.59c-.85,0-1.33-.98-.81-1.65,1.26-1.63,3.23-2.68,5.44-2.68s4.19,1.05,5.44,2.68c.52.67.04,1.65-.81,1.65h-9.27Z"/><path class="cls-64" d="m106.23,302.59c3.68,0,6.67-2.99,6.67-6.67h0c0-4.38,3.55-7.93,7.93-7.93h9.31"/><polygon class="cls-91" points="103.19 218.36 91.92 218.36 66.86 246.08 103.19 246.08 103.19 218.36"/><polygon class="cls-126" points="121.72 243.42 101.94 220.87 79.39 243.42 79.39 286.01 121.72 286.01 121.72 243.42"/><line class="cls-34" x1="108.33" y1="258.3" x2="108.33" y2="264.23"/><rect class="cls-121" x="115.72" y="243.42" width="30.06" height="37.58"/><line class="cls-35" x1="130.93" y1="256.53" x2="130.93" y2="262.47"/><rect class="cls-126" x="113.7" y="243.42" width="32.08" height="6.45"/><path class="cls-123" d="m157.05,242.32l-40.08-1.4v5.16h36.33c2.08,0,3.76-1.68,3.76-3.76h0Z"/><path class="cls-115" d="m157.05,242.32h-38.83l-26.31-26.61h34.99c.86,0,1.69.32,2.32.91l27.83,25.7Z"/><rect class="cls-123" x="101.79" y="210.52" width="5.31" height="40.74" rx="2.66" ry="2.66" transform="translate(-132.67 141.48) rotate(-45)"/><rect class="cls-123" x="59.02" y="228.23" width="40.74" height="5.31" rx="2.66" ry="2.66" transform="translate(-140.01 123.76) rotate(-45)"/><line class="cls-50" x1="120.47" y1="265.56" x2="120.47" y2="278.99"/><line class="cls-72" x1="127.86" y1="263.16" x2="115.72" y2="263.16"/><line class="cls-51" x1="129.23" y1="265.56" x2="129.23" y2="278.99"/><line class="cls-51" x1="137.99" y1="265.56" x2="137.99" y2="278.99"/><line class="cls-51" x1="146.75" y1="265.56" x2="146.75" y2="278.99"/><line class="cls-51" x1="155.51" y1="265.56" x2="155.51" y2="278.99"/><line class="cls-51" x1="158.7" y1="263.16" x2="127.89" y2="263.16"/><path class="cls-126" d="m112.65,276.7h44.93c1.43,0,2.59,1.16,2.59,2.59v3.89c0,1.96-1.59,3.55-3.55,3.55h-46.56v-7.43c0-1.43,1.16-2.59,2.59-2.59Z"/><path class="cls-122" d="m79.47,276.7h45.54c1.43,0,2.59,1.16,2.59,2.59v3.89c0,1.96-1.59,3.55-3.55,3.55h-43.62c-1.96,0-3.55-1.59-3.55-3.55v-3.89c0-1.43,1.16-2.59,2.59-2.59Z"/><circle class="cls-91" cx="95.94" cy="246.87" r="9.09"/><path class="cls-122" d="m91.56,246.87c0-4.2,2.85-7.74,6.73-8.78-.75-.2-1.54-.31-2.36-.31-5.02,0-9.09,4.07-9.09,9.09s4.07,9.09,9.09,9.09c.82,0,1.61-.11,2.36-.31-3.88-1.04-6.73-4.57-6.73-8.78Z"/><circle class="cls-122" cx="95.94" cy="266.44" r="6.33"/><path class="cls-109" d="m71.8,263h24.14c1.9,0,3.45,1.55,3.45,3.45h0c0,1.9-1.55,3.45-3.45,3.45h-24.14v-6.9h0Z"/><circle class="cls-91" cx="71.8" cy="266.44" r="3.45"/><path class="cls-8" d="m126.69,301.36c3.24,0,5.87-2.63,5.87-5.87h0c0-3.85,3.12-6.98,6.98-6.98h3.78"/><path class="cls-64" d="m86.33,290.03c-3.68,0-6.67-2.99-6.67-6.67h0c0-4.38-3.55-7.93-7.93-7.93h-4.3"/><path class="cls-7" d="m157.28,282.73c-3.1,0-6.1,1.09-8.48,3.07l-6.71,5.61c-1.95,1.95-4.6,3.05-7.36,3.05h-4.49c-3.24,0-5.87,2.63-5.87,5.87v6.53c0,1.47-.49,2.91-1.4,4.07h0c-1.39,1.79-1.78,4.17-1.01,6.3l3.87,10.79"/><line class="cls-33" x1="151.72" y1="298.4" x2="138.82" y2="298.4"/><line class="cls-33" x1="147.62" y1="286.45" x2="134.72" y2="286.45"/><line class="cls-33" x1="132.97" y1="278.72" x2="144.36" y2="327.93"/><line class="cls-33" x1="147.56" y1="278.72" x2="156.89" y2="319.01"/></g></g></g></svg>