<?xml version="1.0" encoding="UTF-8"?><svg xmlns="http://www.w3.org/2000/svg" xmlns:xlink="http://www.w3.org/1999/xlink" viewBox="0 0 300 300"><defs><style>.cls-1{fill:#9288fc;mix-blend-mode:multiply;}.cls-1,.cls-2,.cls-3,.cls-4,.cls-5,.cls-6,.cls-7,.cls-8,.cls-9,.cls-10,.cls-11,.cls-12,.cls-13,.cls-14,.cls-15,.cls-16,.cls-17,.cls-18,.cls-19,.cls-20,.cls-21,.cls-22{stroke-width:0px;}.cls-23{clip-path:url(#clippath);}.cls-2{fill:none;}.cls-24{fill:#fa9805;stroke:#fa9805;stroke-miterlimit:10;stroke-width:.87px;}.cls-25{isolation:isolate;}.cls-3{fill:#631d17;}.cls-4{fill:#7d3026;}.cls-5{fill:#6e139e;}.cls-6{fill:#88ebfc;}.cls-7{fill:#3c3f4b;}.cls-8{fill:#42ad60;}.cls-9{fill:#c9cdda;}.cls-10{fill:#db872a;}.cls-11{fill:#aeb2d4;}.cls-12{fill:#b0441c;}.cls-13{fill:#ad3d24;}.cls-14{fill:#942a28;}.cls-15{fill:#ff7939;}.cls-16{fill:#664124;}.cls-17{fill:#686c78;}.cls-18{fill:#ffae4a;}.cls-19{fill:#fff;}.cls-20{fill:#e76a2c;}.cls-21{fill:#ff5429;}.cls-22{fill:#000100;}</style><clipPath id="clippath"><path class="cls-2" d="m279.98,152.2c-1.22,71.79-60.4,128.99-132.18,127.78-71.79-1.21-129-60.39-127.78-132.18,1.22-71.78,60.4-128.99,132.19-127.78,71.78,1.21,128.99,60.39,127.78,132.18Z"/></clipPath></defs><g class="cls-25"><g id="Ebene_3"><g class="cls-23"><path class="cls-5" d="m304.53,177.51c-1.36,80.16-67.44,144.04-147.6,142.69-80.16-1.36-144.04-67.43-142.69-147.6C15.6,92.43,81.68,28.55,161.84,29.9c80.16,1.36,144.04,67.44,142.68,147.6Z"/><circle class="cls-6" cx="148.88" cy="165.88" r="150.97"/><polygon class="cls-7" points="190.68 270.39 194.95 270.1 175.1 154.59 170.82 154.88 190.68 270.39"/><polygon class="cls-7" points="110.43 270.39 106.15 270.1 126 154.59 130.28 154.88 110.43 270.39"/><rect class="cls-17" x="99.9" y="178.16" width="29" height="3.02" transform="translate(-72.88 78.21) rotate(-29.07)"/><rect class="cls-7" x="117.99" y="179.56" width="17.59" height="3.14"/><path class="cls-11" d="m129.98,179.56h-12v-5.36c0-3.43,2.78-6.21,6.21-6.21,3.2,0,5.79,2.59,5.79,5.79v5.78Z"/><path class="cls-17" d="m104.04,184.78h-18.96v-9.79c0-2.63,2.14-4.77,4.77-4.77h9.88c2.39,0,4.32,1.93,4.32,4.32v10.24Z"/><path class="cls-17" d="m107.65,193.83h-34.84v-5.7c0-3.43,2.78-6.21,6.21-6.21h28.63v11.91Z"/><path class="cls-17" d="m125.87,179.56v-3.42c0-1.12-.91-2.03-2.03-2.03h0c-1.11,0-2.03.91-2.03,2.03v3.42h4.06Z"/><rect class="cls-9" x="85.08" y="178.49" width="22.58" height="3.43"/><rect class="cls-9" x="72.82" y="190.4" width="34.84" height="3.43"/><path class="cls-17" d="m157.23,47.4c0-3.18-2.61-5.76-5.84-5.76s-5.83,2.58-5.83,5.76,2.61,5.76,5.83,5.76,5.84-2.58,5.84-5.76Z"/><rect class="cls-7" x="145.54" y="54.73" width="11.69" height="5.23"/><rect class="cls-7" x="120.4" y="150.88" width="60.36" height="5.98" rx="2.99" ry="2.99"/><rect class="cls-22" x="150.03" y="59.96" width="2.84" height="59.84"/><rect class="cls-7" x="145.54" y="59.1" width="11.69" height="1.72"/><rect class="cls-13" x="149.71" y="133.46" width="3.34" height="2.17"/><polygon class="cls-7" points="137.1 147.12 132.33 146.96 143.08 53.03 147.86 53.18 137.1 147.12"/><polygon class="cls-7" points="165.66 147.12 170.44 146.96 159.69 53.03 154.91 53.18 165.66 147.12"/><rect class="cls-7" x="129.97" y="87.78" width="42.69" height="6.22" rx="3.11" ry="3.11"/><rect class="cls-17" x="134.23" y="85.07" width="34.17" height="11.61" rx="5.8" ry="5.8"/><rect class="cls-7" x="133.84" y="166.57" width="6.05" height="21.4"/><rect class="cls-7" x="163.13" y="166.57" width="5.81" height="21.4"/><rect class="cls-17" x="139.89" y="165.28" width="23.23" height="3.87"/><path class="cls-17" d="m142.17,193.83h-8.35v-6.71h6.21c1.18,0,2.14.96,2.14,2.14v4.57Z"/><path class="cls-17" d="m169.08,193.83h-8.35v-4.57c0-1.18.96-2.14,2.14-2.14h6.21v6.71Z"/><rect class="cls-7" x="140.55" y="102.74" width="21.55" height="7.85"/><polygon class="cls-13" points="149.21 123.76 149.21 127.52 149.73 134.53 153.04 134.53 153.56 127.52 153.56 123.76 149.21 123.76"/><path class="cls-13" d="m154.5,130.81h-6.35c-.77,0-1.4-7.22-1.4-7.99h0c0-2.47,2-4.47,4.47-4.47h.21c2.47,0,4.47,2,4.47,4.47h0c0,.77-.63,7.99-1.4,7.99Z"/><path class="cls-24" d="m152.86,190.05h3.15c1.37,0,2.47,1.11,2.47,2.47v1.31h-14.21v-1.31c0-1.37,1.11-2.47,2.47-2.47h3.15v-44.61l-3.8-.59c0-.65-.19-2.84,1.41-2.84h2.39v-7.88c-.83-.85-2.41-4.06-2.41-4.06v-2.42c0-1.92,1.56-3.49,3.48-3.49h.81c1.92,0,3.48,1.56,3.48,3.49v2.42s-1.59,3.01-2.41,3.9v8.05h2.39c1.66,0,1.41,2.19,1.41,2.84l-3.8.59v44.61Z"/><path class="cls-17" d="m176.58,163.3h-52.08v-15.02c0-2.25,1.82-4.07,4.07-4.07h43.94c2.25,0,4.07,1.82,4.07,4.07v15.02Z"/><rect class="cls-7" x="129.84" y="163.3" width="41.16" height="3.66"/><rect class="cls-7" x="128.2" y="155.41" width="44.69" height="4.6" rx="2.29" ry="2.29"/><rect class="cls-7" x="128.2" y="147.26" width="44.69" height="4.58" rx="2.29" ry="2.29"/><path class="cls-7" d="m159.69,54.88h-16.6v-4.67c0-1.55,1.26-2.8,2.8-2.8h11c1.55,0,2.8,1.26,2.8,2.8v4.67Z"/><path class="cls-11" d="m147.37,93.07c-1.22,0-2.22-.98-2.22-2.19s1.01-2.21,2.22-2.21,2.18.98,2.18,2.21-.96,2.19-2.18,2.19Z"/><path class="cls-11" d="m139.3,93.07c-1.21,0-2.2-.98-2.2-2.19s.99-2.21,2.2-2.21,2.21.98,2.21,2.21-.99,2.19-2.21,2.19Z"/><path class="cls-11" d="m87.34,187.97c-1.21,0-2.19-.98-2.19-2.19s.98-2.21,2.19-2.21,2.21.98,2.21,2.21-.97,2.19-2.21,2.19Z"/><path class="cls-11" d="m79.31,187.97c-1.23,0-2.21-.98-2.21-2.19s.98-2.21,2.21-2.21,2.17.98,2.17,2.21-.96,2.19-2.17,2.19Z"/><path class="cls-8" d="m235.87,224.95c-15.34,0-27.61-12.27-27.61-27.34s12.27-27.61,27.61-27.61,27.06,12.27,27.06,27.61-12,27.34-27.06,27.34Z"/><path class="cls-8" d="m266.21,214.67c-15.34,0-27.61-12.27-27.61-27.34s12.27-27.61,27.61-27.61,27.06,12.27,27.06,27.61-12,27.34-27.06,27.34Z"/><path class="cls-8" d="m34.22,227.12c-13.37-5.17-19.93-19.99-14.86-33.13,5.17-13.37,19.99-19.93,33.36-14.77,13.13,5.07,19.46,19.81,14.29,33.18-5.07,13.13-19.67,19.79-32.8,14.71Z"/><path class="cls-8" d="m12.59,202.53c-13.37-5.17-19.93-19.99-14.86-33.13,5.17-13.37,19.99-19.93,33.36-14.77,13.13,5.07,19.46,19.81,14.29,33.18-5.07,13.13-19.67,19.79-32.8,14.71Z"/><path class="cls-19" d="m41.78,122.8c0-13.95,11.15-25.1,25.1-25.1s24.61,11.15,24.61,25.1"/><path class="cls-19" d="m79.05,122.8c0-8.89,7.11-16,16-16s15.68,7.11,15.68,16"/><path class="cls-19" d="m218.82,134.23c0-18.07,12.42-32.52,27.94-32.52s27.39,14.45,27.39,32.52"/><path class="cls-19" d="m260.3,134.23c0-11.52,7.91-20.73,17.8-20.73s17.45,9.21,17.45,20.73"/><path class="cls-19" d="m196.85,134.23c0-11.52,7.91-20.73,17.8-20.73s17.45,9.21,17.45,20.73"/><path class="cls-18" d="m301.55,206.8c.17-.91.49-1.68.89-2.31.08-1.59.13-3.18.15-4.78,0-.26,0-.51,0-.77H.21c.08,6.63.58,13.15,1.49,19.56h296.83c1.23-3.83,2.27-7.72,3.02-11.7Z"/><path class="cls-4" d="m241.76,298.22c8.53-8.5,17.08-16.98,25.62-25.46H32.42c8.66,9.94,17.58,20.02,27.95,28.17.22.17.45.33.67.5h175.49c1.76-1.05,3.5-2.12,5.23-3.21Z"/><path class="cls-3" d="m207.44,316.02c11.62-4.75,23.19-10.78,34.2-17.71H57.19c1.05.89,2.1,1.77,3.17,2.62,19.64,15.44,44.29,23.17,68.95,25.34,26.59,2.34,53.29-.09,78.12-10.24Z"/><path class="cls-20" d="m278.87,258.45c7.12-11.82,14.09-24.05,18.69-37.1H2.12c1.14,7.08,2.79,13.99,4.88,20.7,4.71,5.92,9.47,11.8,14.3,17.62h256.85c.24-.41.49-.82.73-1.23Z"/><path class="cls-15" d="m298.53,218.5H1.69c.14.96.27,1.91.42,10.94h292.27c1.55-3.58,2.94-7.23,4.14-10.94Z"/><path class="cls-12" d="m278.87,258.45c1.1-1.82,2.19-3.65,3.27-5.49H15.76c2.87,3.53,5.78,7.04,8.72,10.52h251.4c.99-1.69,1.99-3.37,2.99-5.03Z"/><path class="cls-14" d="m274.73,265.45c.06-.1.12-.2.17-.3H25.89c1.65,1.95,3.29,3.9,4.97,5.82.52.6,1.04,1.19,1.56,1.79h234.96c2.45-2.44,4.9-4.88,7.35-7.31Z"/><path class="cls-14" d="m275.88,263.49H24.48c.47.56.95,1.11,1.42,1.66h249.01c.33-.56.65-1.11.98-1.66Z"/><path class="cls-10" d="m.21,198.94h302.39c.02-1.73,0-3.46-.03-5.18H.24c0,.28-.02.55-.02.83-.03,1.45-.02,2.9,0,4.35Z"/><path class="cls-16" d="m157.15,326.46v-132.7h-11.64v133.28c3.89-.07,7.77-.26,11.64-.58Z"/><path class="cls-21" d="m153.84,326.71v-132.95h-5.02v133.2c1.68-.06,3.35-.14,5.02-.25Z"/><path class="cls-1" d="m249.53,193.84c-36.2,60.46-114.56,80.13-175.03,43.93C17.16,203.43-3.48,131.16,25.44,72.21c-1.22,1.85-2.42,3.73-3.57,5.65C-19.36,146.74,3.04,236,71.91,277.23c68.88,41.24,158.14,18.83,199.37-50.04,41.24-68.88,18.83-158.13-50.05-199.37-3.36-2.01-6.76-3.86-10.21-5.57,56.19,37.54,73.6,112.97,38.51,171.59Z"/></g></g></g></svg>